<svg xmlns="http://www.w3.org/2000/svg" xmlns:xlink="http://www.w3.org/1999/xlink" width="500" zoomAndPan="magnify" viewBox="0 0 375 374.999991" height="500" preserveAspectRatio="xMidYMid meet" version="1.0"><defs><g/><clipPath id="f1e1cab978"><path d="M 305 150 L 359.945312 150 L 359.945312 227.464844 L 305 227.464844 Z M 305 150 " clip-rule="nonzero"/></clipPath><clipPath id="daa9ce169b"><path d="M 330.472656 150.1875 C 331.3125 150.332031 331.960938 150.839844 332.398438 151.757812 C 334.078125 155.28125 333.902344 159.480469 332.976562 163.179688 C 332.078125 166.746094 330.5 170.101562 329.113281 173.507812 C 327.722656 176.917969 326.511719 180.476562 326.421875 184.152344 C 326.292969 189.253906 328.355469 194.214844 331.3125 198.375 C 330.976562 193.558594 330.746094 188.632812 332.023438 183.976562 C 333.660156 178.019531 337.679688 172.828125 338.664062 166.730469 C 339.054688 164.328125 339.015625 161.652344 338.414062 159.28125 C 337.804688 156.898438 336.347656 154.84375 335.46875 152.566406 C 334.171875 149.226562 338.25 150.667969 339.847656 151.328125 C 342.730469 152.511719 345.304688 154.214844 347.574219 156.355469 C 351.0625 159.652344 353.78125 163.769531 355.726562 168.140625 C 358.59375 174.574219 359.90625 181.664062 359.90625 188.6875 C 359.90625 210.007812 347.707031 227.285156 332.65625 227.285156 C 317.609375 227.285156 305.410156 210.007812 305.410156 188.6875 C 305.410156 177.734375 308.621094 166.027344 316.253906 157.867188 C 318.308594 155.667969 320.699219 153.757812 323.386719 152.382812 C 325.355469 151.375 327.21875 150.425781 329.460938 150.167969 C 329.824219 150.128906 330.164062 150.132812 330.472656 150.1875 Z M 330.472656 150.1875 " clip-rule="nonzero"/></clipPath><clipPath id="cda54fb803"><path d="M 330.472656 150.1875 C 331.3125 150.332031 331.960938 150.839844 332.398438 151.757812 C 334.078125 155.28125 333.902344 159.480469 332.976562 163.179688 C 332.078125 166.746094 330.5 170.101562 329.113281 173.507812 C 327.722656 176.917969 326.511719 180.476562 326.421875 184.152344 C 326.292969 189.253906 328.355469 194.214844 331.3125 198.375 C 330.976562 193.558594 330.746094 188.632812 332.023438 183.976562 C 333.660156 178.019531 337.679688 172.828125 338.664062 166.730469 C 339.054688 164.328125 339.015625 161.652344 338.414062 159.28125 C 337.804688 156.898438 336.347656 154.84375 335.46875 152.566406 C 334.171875 149.226562 338.25 150.667969 339.847656 151.328125 C 342.730469 152.511719 345.304688 154.214844 347.574219 156.355469 C 351.0625 159.652344 353.78125 163.769531 355.726562 168.140625 C 358.59375 174.574219 359.90625 181.664062 359.90625 188.6875 C 359.90625 210.007812 347.707031 227.285156 332.65625 227.285156 C 317.609375 227.285156 305.410156 210.007812 305.410156 188.6875 C 305.410156 177.734375 308.621094 166.027344 316.253906 157.867188 C 318.308594 155.667969 320.699219 153.757812 323.386719 152.382812 C 325.355469 151.375 327.21875 150.425781 329.460938 150.167969 C 329.824219 150.128906 330.164062 150.132812 330.472656 150.1875 " clip-rule="nonzero"/></clipPath><clipPath id="24d4b83ac3"><path d="M 304.285156 227.269531 L 305.421875 148.441406 L 361.03125 149.242188 L 359.894531 228.070312 Z M 304.285156 227.269531 " clip-rule="nonzero"/></clipPath><linearGradient x1="0.796839" gradientTransform="matrix(370.753071, 5.326717, 5.33883, -369.911891, 9.426228, 184.045406)" y1="0" x2="0.946805" gradientUnits="userSpaceOnUse" y2="0" id="b605d6e0bb"><stop stop-opacity="1" stop-color="rgb(29.798889%, 18.798828%, 13.299561%)" offset="0"/><stop stop-opacity="1" stop-color="rgb(29.608154%, 18.798828%, 13.299561%)" offset="0.0625"/><stop stop-opacity="1" stop-color="rgb(29.408264%, 18.606567%, 13.299561%)" offset="0.09375"/><stop stop-opacity="1" stop-color="rgb(29.205322%, 18.406677%, 13.105774%)" offset="0.125"/><stop stop-opacity="1" stop-color="rgb(28.912354%, 18.304443%, 12.905884%)" offset="0.140625"/><stop stop-opacity="1" stop-color="rgb(28.710938%, 18.110657%, 12.89978%)" offset="0.15625"/><stop stop-opacity="1" stop-color="rgb(28.604126%, 18.003845%, 12.89978%)" offset="0.1875"/><stop stop-opacity="1" stop-color="rgb(28.407288%, 17.999268%, 12.89978%)" offset="0.21875"/><stop stop-opacity="1" stop-color="rgb(28.207397%, 17.805481%, 12.705994%)" offset="0.25"/><stop stop-opacity="1" stop-color="rgb(28.004456%, 17.605591%, 12.506104%)" offset="0.28125"/><stop stop-opacity="1" stop-color="rgb(27.804565%, 17.456055%, 12.5%)" offset="0.3125"/><stop stop-opacity="1" stop-color="rgb(27.656555%, 17.306519%, 12.356567%)" offset="0.34375"/><stop stop-opacity="1" stop-color="rgb(27.505493%, 17.106628%, 12.205505%)" offset="0.375"/><stop stop-opacity="1" stop-color="rgb(27.304077%, 16.906738%, 12.199402%)" offset="0.40625"/><stop stop-opacity="1" stop-color="rgb(27.104187%, 16.899109%, 12.199402%)" offset="0.4375"/><stop stop-opacity="1" stop-color="rgb(26.908875%, 16.708374%, 12.008667%)" offset="0.46875"/><stop stop-opacity="1" stop-color="rgb(26.708984%, 16.508484%, 11.808777%)" offset="0.5"/><stop stop-opacity="1" stop-color="rgb(26.504517%, 16.305542%, 11.799622%)" offset="0.53125"/><stop stop-opacity="1" stop-color="rgb(26.304626%, 16.105652%, 11.799622%)" offset="0.5625"/><stop stop-opacity="1" stop-color="rgb(26.107788%, 16.099548%, 11.608887%)" offset="0.59375"/><stop stop-opacity="1" stop-color="rgb(25.817871%, 16.007996%, 11.408997%)" offset="0.609375"/><stop stop-opacity="1" stop-color="rgb(25.614929%, 15.815735%, 11.399841%)" offset="0.625"/><stop stop-opacity="1" stop-color="rgb(25.506592%, 15.707397%, 11.399841%)" offset="0.65625"/><stop stop-opacity="1" stop-color="rgb(25.309753%, 15.510559%, 11.210632%)" offset="0.6875"/><stop stop-opacity="1" stop-color="rgb(25.109863%, 15.310669%, 11.009216%)" offset="0.71875"/><stop stop-opacity="1" stop-color="rgb(24.906921%, 15.299988%, 10.998535%)" offset="0.75"/><stop stop-opacity="1" stop-color="rgb(24.707031%, 15.106201%, 10.998535%)" offset="0.78125"/><stop stop-opacity="1" stop-color="rgb(24.510193%, 14.904785%, 10.809326%)" offset="0.8125"/><stop stop-opacity="1" stop-color="rgb(24.310303%, 14.898682%, 10.609436%)" offset="0.84375"/><stop stop-opacity="1" stop-color="rgb(24.107361%, 14.706421%, 10.598755%)" offset="0.875"/><stop stop-opacity="1" stop-color="rgb(23.907471%, 14.506531%, 10.598755%)" offset="0.90625"/><stop stop-opacity="1" stop-color="rgb(23.710632%, 14.309692%, 10.409546%)" offset="0.9375"/><stop stop-opacity="1" stop-color="rgb(23.509216%, 14.109802%, 10.209656%)" offset="0.96875"/><stop stop-opacity="1" stop-color="rgb(23.306274%, 14.099121%, 10.198975%)" offset="1"/></linearGradient><clipPath id="21d01d5738"><path d="M 208.273438 151.851562 L 237 151.851562 L 237 228.273438 L 208.273438 228.273438 Z M 208.273438 151.851562 " clip-rule="nonzero"/></clipPath><clipPath id="057493c75e"><path d="M 233.59375 152.660156 C 234.945312 153.417969 235.96875 154.839844 236.386719 156.933594 C 237.097656 160.484375 236.691406 164.222656 236.65625 167.808594 C 236.617188 172.035156 236.304688 176.292969 235.109375 180.371094 C 233.054688 187.367188 228.71875 193.566406 226.933594 200.636719 C 225.761719 205.277344 225.648438 210.269531 226.628906 214.957031 C 226.988281 216.667969 227.53125 218.351562 228.351562 219.902344 C 229.144531 221.414062 230.328125 222.667969 231.191406 224.136719 C 231.941406 225.410156 232.730469 228.730469 230.144531 228.191406 C 228.121094 227.769531 226.460938 226.5625 224.777344 225.441406 C 222.941406 224.214844 221.242188 222.796875 219.714844 221.203125 C 216.371094 217.714844 213.941406 213.429688 212.171875 208.933594 C 208.210938 198.863281 207.5 187.542969 210.179688 177.054688 C 212.640625 167.410156 218.230469 158.222656 226.847656 153.210938 C 229.253906 151.808594 231.734375 151.613281 233.59375 152.660156 Z M 233.59375 152.660156 " clip-rule="nonzero"/></clipPath><clipPath id="d4e5cb0ea7"><path d="M 233.59375 152.660156 C 234.945312 153.417969 235.96875 154.839844 236.386719 156.933594 C 237.097656 160.484375 236.691406 164.222656 236.65625 167.808594 C 236.617188 172.035156 236.304688 176.292969 235.109375 180.371094 C 233.054688 187.367188 228.71875 193.566406 226.933594 200.636719 C 225.761719 205.277344 225.648438 210.269531 226.628906 214.957031 C 226.988281 216.667969 227.53125 218.351562 228.351562 219.902344 C 229.144531 221.414062 230.328125 222.667969 231.191406 224.136719 C 231.941406 225.410156 232.730469 228.730469 230.144531 228.191406 C 228.121094 227.769531 226.460938 226.5625 224.777344 225.441406 C 222.941406 224.214844 221.242188 222.796875 219.714844 221.203125 C 216.371094 217.714844 213.941406 213.429688 212.171875 208.933594 C 208.210938 198.863281 207.5 187.542969 210.179688 177.054688 C 212.640625 167.410156 218.230469 158.222656 226.847656 153.210938 C 229.253906 151.808594 231.734375 151.613281 233.59375 152.660156 " clip-rule="nonzero"/></clipPath><clipPath id="aef84b2378"><path d="M 206.386719 228.714844 L 207.507812 151.183594 L 238.207031 151.628906 L 237.089844 229.15625 Z M 206.386719 228.714844 " clip-rule="nonzero"/></clipPath><linearGradient x1="0.534969" gradientTransform="matrix(370.753071, 5.326717, 5.33883, -369.911891, 9.384755, 186.889556)" y1="0" x2="0.61567" gradientUnits="userSpaceOnUse" y2="0" id="34e45a0603"><stop stop-opacity="1" stop-color="rgb(42.698669%, 29.399109%, 19.999695%)" offset="0"/><stop stop-opacity="1" stop-color="rgb(42.64679%, 29.328918%, 19.999695%)" offset="0.0625"/><stop stop-opacity="1" stop-color="rgb(42.431641%, 29.129028%, 19.934082%)" offset="0.125"/><stop stop-opacity="1" stop-color="rgb(42.134094%, 28.941345%, 19.734192%)" offset="0.1875"/><stop stop-opacity="1" stop-color="rgb(41.946411%, 28.688049%, 19.546509%)" offset="0.25"/><stop stop-opacity="1" stop-color="rgb(41.699219%, 28.346252%, 19.345093%)" offset="0.3125"/><stop stop-opacity="1" stop-color="rgb(41.351318%, 28.157043%, 19.198608%)" offset="0.375"/><stop stop-opacity="1" stop-color="rgb(41.162109%, 27.957153%, 19.161987%)" offset="0.4375"/><stop stop-opacity="1" stop-color="rgb(40.931702%, 27.775574%, 18.962097%)" offset="0.5"/><stop stop-opacity="1" stop-color="rgb(40.54718%, 27.604675%, 18.778992%)" offset="0.625"/><stop stop-opacity="1" stop-color="rgb(40.164185%, 27.264404%, 18.579102%)" offset="0.6875"/><stop stop-opacity="1" stop-color="rgb(39.785767%, 26.885986%, 18.399048%)" offset="0.75"/><stop stop-opacity="1" stop-color="rgb(39.596558%, 26.696777%, 18.395996%)" offset="0.8125"/><stop stop-opacity="1" stop-color="rgb(39.49585%, 26.596069%, 18.296814%)" offset="0.84375"/><stop stop-opacity="1" stop-color="rgb(39.300537%, 26.400757%, 18.099976%)" offset="0.875"/><stop stop-opacity="1" stop-color="rgb(39.009094%, 26.300049%, 18.000793%)" offset="0.9375"/><stop stop-opacity="1" stop-color="rgb(38.807678%, 26.11084%, 17.999268%)" offset="1"/></linearGradient><clipPath id="e4c4eb3ec1"><path d="M 232.6875 146.523438 L 263.203125 146.523438 L 263.203125 224.925781 L 232.6875 224.925781 Z M 232.6875 146.523438 " clip-rule="nonzero"/></clipPath><clipPath id="cfde18a982"><path d="M 233.226562 214.820312 C 233.71875 210.253906 234.082031 205.796875 235.503906 201.402344 C 236.179688 199.339844 237.097656 197.269531 238.136719 195.082031 C 239.175781 192.902344 240.378906 190.605469 241.546875 188.105469 C 242.710938 185.609375 243.820312 182.882812 244.578125 179.996094 C 245.335938 177.117188 245.738281 174.105469 245.636719 171.238281 C 245.550781 168.382812 245.132812 165.667969 244.417969 163.257812 C 244.238281 162.65625 244.09375 162.046875 243.890625 161.480469 C 243.683594 160.914062 243.484375 160.355469 243.269531 159.8125 C 242.296875 157.152344 240.941406 154.390625 238.980469 152.3125 C 237.972656 151.246094 236.507812 150.125 236.082031 148.660156 C 234.925781 144.683594 241.640625 147.269531 243.046875 148.03125 C 249.65625 151.601562 254.9375 157.292969 258.234375 164.007812 C 261.582031 170.816406 263.101562 178.46875 263.101562 186.027344 C 263.101562 198.03125 259.28125 211.46875 249.585938 219.28125 C 247.589844 220.890625 245.378906 222.234375 243.03125 223.269531 C 240.847656 224.234375 237.816406 225.402344 235.339844 224.675781 C 231.707031 223.605469 232.984375 217.105469 233.226562 214.820312 Z M 233.226562 214.820312 " clip-rule="nonzero"/></clipPath><clipPath id="e8705f9de7"><path d="M 233.226562 214.820312 C 233.71875 210.253906 234.082031 205.796875 235.503906 201.402344 C 236.179688 199.339844 237.097656 197.269531 238.136719 195.082031 C 239.175781 192.902344 240.378906 190.605469 241.546875 188.105469 C 242.710938 185.609375 243.820312 182.882812 244.578125 179.996094 C 245.335938 177.117188 245.738281 174.105469 245.636719 171.238281 C 245.550781 168.382812 245.132812 165.667969 244.417969 163.257812 C 244.238281 162.65625 244.09375 162.046875 243.890625 161.480469 C 243.683594 160.914062 243.484375 160.355469 243.269531 159.8125 C 242.296875 157.152344 240.941406 154.390625 238.980469 152.3125 C 237.972656 151.246094 236.507812 150.125 236.082031 148.660156 C 234.925781 144.683594 241.640625 147.269531 243.046875 148.03125 C 249.65625 151.601562 254.9375 157.292969 258.234375 164.007812 C 261.582031 170.816406 263.101562 178.46875 263.101562 186.027344 C 263.101562 198.03125 259.28125 211.46875 249.585938 219.28125 C 247.589844 220.890625 245.378906 222.234375 243.03125 223.269531 C 240.847656 224.234375 237.816406 225.402344 235.339844 224.675781 C 231.707031 223.605469 232.984375 217.105469 233.226562 214.820312 " clip-rule="nonzero"/></clipPath><clipPath id="7d63e34d79"><path d="M 230.539062 225.386719 L 231.710938 144.230469 L 264.265625 144.699219 L 263.09375 225.855469 Z M 230.539062 225.386719 " clip-rule="nonzero"/></clipPath><linearGradient x1="0.600597" gradientTransform="matrix(370.753071, 5.326717, 5.33883, -369.911891, 9.44907, 182.378246)" y1="0" x2="0.685666" gradientUnits="userSpaceOnUse" y2="0" id="340f326a4e"><stop stop-opacity="1" stop-color="rgb(39.411926%, 26.699829%, 18.399048%)" offset="0"/><stop stop-opacity="1" stop-color="rgb(39.21814%, 26.612854%, 18.312073%)" offset="0.0625"/><stop stop-opacity="1" stop-color="rgb(38.911438%, 26.332092%, 18.112183%)" offset="0.125"/><stop stop-opacity="1" stop-color="rgb(38.725281%, 26.017761%, 17.999268%)" offset="0.1875"/><stop stop-opacity="1" stop-color="rgb(38.458252%, 25.831604%, 17.932129%)" offset="0.25"/><stop stop-opacity="1" stop-color="rgb(38.076782%, 25.576782%, 17.69104%)" offset="0.375"/><stop stop-opacity="1" stop-color="rgb(37.709045%, 25.244141%, 17.408752%)" offset="0.4375"/><stop stop-opacity="1" stop-color="rgb(37.413025%, 25.057983%, 17.298889%)" offset="0.5"/><stop stop-opacity="1" stop-color="rgb(37.265015%, 24.824524%, 17.26532%)" offset="0.5625"/><stop stop-opacity="1" stop-color="rgb(37.037659%, 24.465942%, 17.06543%)" offset="0.625"/><stop stop-opacity="1" stop-color="rgb(36.651611%, 24.279785%, 16.899109%)" offset="0.6875"/><stop stop-opacity="1" stop-color="rgb(36.279297%, 24.079895%, 16.88385%)" offset="0.75"/><stop stop-opacity="1" stop-color="rgb(36.09314%, 23.892212%, 16.68396%)" offset="0.8125"/><stop stop-opacity="1" stop-color="rgb(35.891724%, 23.692322%, 16.499329%)" offset="0.875"/><stop stop-opacity="1" stop-color="rgb(35.50415%, 23.498535%, 16.499329%)" offset="0.9375"/><stop stop-opacity="1" stop-color="rgb(35.305786%, 23.310852%, 16.311646%)" offset="1"/></linearGradient><clipPath id="1560afdad3"><path d="M 111.636719 149.316406 L 166.566406 149.316406 L 166.566406 226.957031 L 111.636719 226.957031 Z M 111.636719 149.316406 " clip-rule="nonzero"/></clipPath><clipPath id="7039875e94"><path d="M 131.519531 198.804688 C 131.882812 196.582031 132.5625 194.367188 133.378906 192.277344 C 134.195312 190.191406 135.140625 188.234375 135.996094 186.390625 C 136.859375 184.546875 137.632812 182.8125 138.214844 181.113281 C 138.800781 179.421875 139.234375 177.761719 139.445312 176.078125 C 139.652344 174.394531 139.773438 172.707031 139.679688 171.050781 C 139.660156 170.636719 139.675781 170.226562 139.632812 169.820312 C 139.59375 169.410156 139.550781 169.007812 139.523438 168.609375 C 139.492188 167.804688 139.347656 167.03125 139.261719 166.273438 C 139.210938 165.894531 139.175781 165.523438 139.121094 165.15625 C 139.054688 164.796875 138.988281 164.441406 138.9375 164.089844 C 138.820312 163.390625 138.722656 162.714844 138.605469 162.089844 C 138.347656 160.847656 138.1875 159.730469 137.984375 158.792969 C 137.585938 156.921875 137.449219 155.808594 137.449219 155.808594 C 137.449219 155.808594 138.242188 156.601562 139.480469 158.0625 C 139.800781 158.414062 140.109375 158.847656 140.460938 159.320312 C 140.8125 159.789062 141.171875 160.316406 141.566406 160.875 C 141.773438 161.152344 141.945312 161.453125 142.128906 161.761719 C 142.316406 162.074219 142.507812 162.394531 142.703125 162.71875 C 142.902344 163.046875 143.097656 163.390625 143.292969 163.742188 C 143.480469 164.097656 143.660156 164.46875 143.847656 164.851562 C 144.222656 165.613281 144.605469 166.414062 144.925781 167.285156 C 145.097656 167.722656 145.253906 168.167969 145.417969 168.621094 C 145.582031 169.074219 145.699219 169.558594 145.84375 170.039062 C 146.410156 171.964844 146.746094 174.132812 146.816406 176.417969 C 146.898438 178.703125 146.574219 181.113281 145.96875 183.414062 C 145.363281 185.71875 144.476562 187.898438 143.550781 189.890625 C 142.617188 191.890625 141.65625 193.722656 140.824219 195.46875 C 139.996094 197.214844 139.261719 198.871094 138.71875 200.515625 C 138.1875 202.164062 137.777344 203.792969 137.519531 205.40625 C 137.441406 205.808594 137.417969 206.214844 137.359375 206.613281 C 137.320312 207.011719 137.246094 207.40625 137.226562 207.800781 C 137.199219 208.195312 137.171875 208.585938 137.144531 208.96875 C 137.113281 209.355469 137.09375 209.734375 137.09375 210.109375 C 137.085938 210.863281 137.050781 211.589844 137.0625 212.292969 C 137.078125 212.992188 137.105469 213.660156 137.105469 214.300781 C 137.171875 215.59375 137.226562 216.71875 137.273438 217.648438 C 137.4375 219.519531 137.449219 220.65625 137.449219 220.65625 C 137.449219 220.65625 136.753906 219.792969 135.683594 218.164062 C 135.410156 217.761719 135.167969 217.285156 134.875 216.773438 C 134.585938 216.265625 134.277344 215.707031 133.984375 215.089844 C 133.695312 214.472656 133.417969 213.800781 133.109375 213.089844 C 132.945312 212.738281 132.839844 212.355469 132.707031 211.972656 C 132.578125 211.582031 132.445312 211.183594 132.308594 210.777344 C 132.160156 210.375 132.070312 209.945312 131.96875 209.507812 C 131.863281 209.066406 131.761719 208.617188 131.65625 208.160156 C 131.535156 207.703125 131.503906 207.222656 131.429688 206.738281 C 131.371094 206.253906 131.28125 205.761719 131.246094 205.253906 C 131.09375 203.226562 131.15625 201.03125 131.519531 198.804688 Z M 111.75 188.230469 C 111.75 209.550781 123.953125 226.832031 139 226.832031 C 154.046875 226.832031 166.246094 209.550781 166.246094 188.230469 C 166.246094 166.914062 154.046875 149.632812 139 149.632812 C 123.953125 149.632812 111.75 166.914062 111.75 188.230469 Z M 111.75 188.230469 " clip-rule="nonzero"/></clipPath><clipPath id="e44b346a55"><path d="M 131.519531 198.804688 C 131.882812 196.582031 132.5625 194.367188 133.378906 192.277344 C 134.195312 190.191406 135.140625 188.234375 135.996094 186.390625 C 136.859375 184.546875 137.632812 182.8125 138.214844 181.113281 C 138.800781 179.421875 139.234375 177.761719 139.445312 176.078125 C 139.652344 174.394531 139.773438 172.707031 139.679688 171.050781 C 139.660156 170.636719 139.675781 170.226562 139.632812 169.820312 C 139.59375 169.410156 139.550781 169.007812 139.523438 168.609375 C 139.492188 167.804688 139.347656 167.03125 139.261719 166.273438 C 139.210938 165.894531 139.175781 165.523438 139.121094 165.15625 C 139.054688 164.796875 138.988281 164.441406 138.9375 164.089844 C 138.820312 163.390625 138.722656 162.714844 138.605469 162.089844 C 138.347656 160.847656 138.1875 159.730469 137.984375 158.792969 C 137.585938 156.921875 137.449219 155.808594 137.449219 155.808594 C 137.449219 155.808594 138.242188 156.601562 139.480469 158.0625 C 139.800781 158.414062 140.109375 158.847656 140.460938 159.320312 C 140.8125 159.789062 141.171875 160.316406 141.566406 160.875 C 141.773438 161.152344 141.945312 161.453125 142.128906 161.761719 C 142.316406 162.074219 142.507812 162.394531 142.703125 162.71875 C 142.902344 163.046875 143.097656 163.390625 143.292969 163.742188 C 143.480469 164.097656 143.660156 164.46875 143.847656 164.851562 C 144.222656 165.613281 144.605469 166.414062 144.925781 167.285156 C 145.097656 167.722656 145.253906 168.167969 145.417969 168.621094 C 145.582031 169.074219 145.699219 169.558594 145.84375 170.039062 C 146.410156 171.964844 146.746094 174.132812 146.816406 176.417969 C 146.898438 178.703125 146.574219 181.113281 145.96875 183.414062 C 145.363281 185.71875 144.476562 187.898438 143.550781 189.890625 C 142.617188 191.890625 141.65625 193.722656 140.824219 195.46875 C 139.996094 197.214844 139.261719 198.871094 138.71875 200.515625 C 138.1875 202.164062 137.777344 203.792969 137.519531 205.40625 C 137.441406 205.808594 137.417969 206.214844 137.359375 206.613281 C 137.320312 207.011719 137.246094 207.40625 137.226562 207.800781 C 137.199219 208.195312 137.171875 208.585938 137.144531 208.96875 C 137.113281 209.355469 137.09375 209.734375 137.09375 210.109375 C 137.085938 210.863281 137.050781 211.589844 137.0625 212.292969 C 137.078125 212.992188 137.105469 213.660156 137.105469 214.300781 C 137.171875 215.59375 137.226562 216.71875 137.273438 217.648438 C 137.4375 219.519531 137.449219 220.65625 137.449219 220.65625 C 137.449219 220.65625 136.753906 219.792969 135.683594 218.164062 C 135.410156 217.761719 135.167969 217.285156 134.875 216.773438 C 134.585938 216.265625 134.277344 215.707031 133.984375 215.089844 C 133.695312 214.472656 133.417969 213.800781 133.109375 213.089844 C 132.945312 212.738281 132.839844 212.355469 132.707031 211.972656 C 132.578125 211.582031 132.445312 211.183594 132.308594 210.777344 C 132.160156 210.375 132.070312 209.945312 131.96875 209.507812 C 131.863281 209.066406 131.761719 208.617188 131.65625 208.160156 C 131.535156 207.703125 131.503906 207.222656 131.429688 206.738281 C 131.371094 206.253906 131.28125 205.761719 131.246094 205.253906 C 131.09375 203.226562 131.15625 201.03125 131.519531 198.804688 Z M 111.75 188.230469 C 111.75 209.550781 123.953125 226.832031 139 226.832031 C 154.046875 226.832031 166.246094 209.550781 166.246094 188.230469 C 166.246094 166.914062 154.046875 149.632812 139 149.632812 C 123.953125 149.632812 111.75 166.914062 111.75 188.230469 " clip-rule="nonzero"/></clipPath><clipPath id="c40600b617"><path d="M 110.640625 226.816406 L 111.761719 148.851562 L 167.359375 149.648438 L 166.234375 227.613281 Z M 110.640625 226.816406 " clip-rule="nonzero"/></clipPath><linearGradient x1="0.274595" gradientTransform="matrix(370.753071, 5.326717, 5.33883, -369.911891, 9.394108, 186.325036)" y1="0" x2="0.42455" gradientUnits="userSpaceOnUse" y2="0" id="076b8b92cc"><stop stop-opacity="1" stop-color="rgb(57.299805%, 41.999817%, 27.099609%)" offset="0"/><stop stop-opacity="1" stop-color="rgb(57.299805%, 41.815186%, 27.099609%)" offset="0.03125"/><stop stop-opacity="1" stop-color="rgb(57.119751%, 41.61377%, 27.099609%)" offset="0.0625"/><stop stop-opacity="1" stop-color="rgb(56.838989%, 41.519165%, 27.018738%)" offset="0.078125"/><stop stop-opacity="1" stop-color="rgb(56.639099%, 41.339111%, 26.838684%)" offset="0.09375"/><stop stop-opacity="1" stop-color="rgb(56.518555%, 41.136169%, 26.71814%)" offset="0.109375"/><stop stop-opacity="1" stop-color="rgb(56.498718%, 40.934753%, 26.699829%)" offset="0.125"/><stop stop-opacity="1" stop-color="rgb(56.314087%, 40.815735%, 26.699829%)" offset="0.15625"/><stop stop-opacity="1" stop-color="rgb(55.935669%, 40.618896%, 26.519775%)" offset="0.1875"/><stop stop-opacity="1" stop-color="rgb(55.718994%, 40.419006%, 26.318359%)" offset="0.21875"/><stop stop-opacity="1" stop-color="rgb(55.516052%, 40.216064%, 26.298523%)" offset="0.25"/><stop stop-opacity="1" stop-color="rgb(55.233765%, 39.933777%, 26.216125%)" offset="0.265625"/><stop stop-opacity="1" stop-color="rgb(55.032349%, 39.732361%, 26.03302%)" offset="0.28125"/><stop stop-opacity="1" stop-color="rgb(54.736328%, 39.614868%, 25.915527%)" offset="0.3125"/><stop stop-opacity="1" stop-color="rgb(54.519653%, 39.41803%, 25.898743%)" offset="0.34375"/><stop stop-opacity="1" stop-color="rgb(54.316711%, 39.21814%, 25.717163%)" offset="0.375"/><stop stop-opacity="1" stop-color="rgb(54.034424%, 39.115906%, 25.517273%)" offset="0.390625"/><stop stop-opacity="1" stop-color="rgb(53.833008%, 38.9328%, 25.498962%)" offset="0.40625"/><stop stop-opacity="1" stop-color="rgb(53.715515%, 38.63678%, 25.498962%)" offset="0.4375"/><stop stop-opacity="1" stop-color="rgb(53.518677%, 38.420105%, 25.318909%)" offset="0.46875"/><stop stop-opacity="1" stop-color="rgb(53.237915%, 38.317871%, 25.119019%)" offset="0.484375"/><stop stop-opacity="1" stop-color="rgb(53.036499%, 38.136292%, 25.099182%)" offset="0.5"/><stop stop-opacity="1" stop-color="rgb(52.91748%, 38.017273%, 25.099182%)" offset="0.53125"/><stop stop-opacity="1" stop-color="rgb(52.719116%, 37.820435%, 24.919128%)" offset="0.5625"/><stop stop-opacity="1" stop-color="rgb(52.384949%, 37.484741%, 24.719238%)" offset="0.59375"/><stop stop-opacity="1" stop-color="rgb(52.133179%, 37.313843%, 24.699402%)" offset="0.609375"/><stop stop-opacity="1" stop-color="rgb(51.937866%, 37.298584%, 24.699402%)" offset="0.625"/><stop stop-opacity="1" stop-color="rgb(51.817322%, 37.115479%, 24.516296%)" offset="0.65625"/><stop stop-opacity="1" stop-color="rgb(51.620483%, 36.915588%, 24.316406%)" offset="0.6875"/><stop stop-opacity="1" stop-color="rgb(51.341248%, 36.819458%, 24.299622%)" offset="0.703125"/><stop stop-opacity="1" stop-color="rgb(51.141357%, 36.64093%, 24.299622%)" offset="0.71875"/><stop stop-opacity="1" stop-color="rgb(51.019287%, 36.439514%, 24.21875%)" offset="0.734375"/><stop stop-opacity="1" stop-color="rgb(50.999451%, 36.238098%, 24.03717%)" offset="0.75"/><stop stop-opacity="1" stop-color="rgb(50.816345%, 36.117554%, 23.918152%)" offset="0.78125"/><stop stop-opacity="1" stop-color="rgb(50.437927%, 35.920715%, 23.899841%)" offset="0.8125"/><stop stop-opacity="1" stop-color="rgb(50.221252%, 35.720825%, 23.719788%)" offset="0.84375"/><stop stop-opacity="1" stop-color="rgb(50.018311%, 35.517883%, 23.519897%)" offset="0.875"/><stop stop-opacity="1" stop-color="rgb(49.736023%, 35.317993%, 23.498535%)" offset="0.890625"/><stop stop-opacity="1" stop-color="rgb(49.534607%, 35.299683%, 23.498535%)" offset="0.90625"/><stop stop-opacity="1" stop-color="rgb(49.415588%, 35.121155%, 23.320007%)" offset="0.9375"/><stop stop-opacity="1" stop-color="rgb(49.320984%, 34.841919%, 23.120117%)" offset="0.953125"/><stop stop-opacity="1" stop-color="rgb(49.142456%, 34.642029%, 23.098755%)" offset="0.96875"/><stop stop-opacity="1" stop-color="rgb(48.939514%, 34.519958%, 23.098755%)" offset="0.984375"/><stop stop-opacity="1" stop-color="rgb(48.738098%, 34.498596%, 23.098755%)" offset="1"/></linearGradient><clipPath id="70390f41c6"><path d="M 43 149 L 69.933594 149 L 69.933594 225.433594 L 43 225.433594 Z M 43 149 " clip-rule="nonzero"/></clipPath><clipPath id="7145b5ba80"><path d="M 43.296875 221.710938 C 43.484375 220.101562 43.671875 218.285156 43.855469 216.300781 C 43.9375 215.308594 44.027344 214.277344 44.117188 213.207031 C 44.203125 212.140625 44.273438 211.035156 44.355469 209.898438 C 44.503906 207.628906 44.640625 205.230469 44.742188 202.753906 C 44.804688 201.515625 44.839844 200.253906 44.882812 198.980469 C 44.902344 198.339844 44.925781 197.699219 44.945312 197.054688 C 44.957031 196.410156 44.96875 195.761719 44.980469 195.113281 C 45.042969 192.507812 45.066406 189.867188 45.070312 187.222656 C 45.070312 184.578125 45.035156 181.9375 44.976562 179.332031 C 44.960938 178.03125 44.921875 176.742188 44.875 175.464844 C 44.835938 174.191406 44.796875 172.929688 44.734375 171.691406 C 44.632812 169.214844 44.496094 166.816406 44.347656 164.546875 C 44.195312 162.273438 44.027344 160.128906 43.847656 158.144531 C 43.667969 156.160156 43.476562 154.34375 43.289062 152.734375 C 43.289062 152.71875 43.285156 152.703125 43.285156 152.6875 C 43.027344 150.480469 45.078125 148.714844 47.230469 149.285156 C 59.867188 152.640625 69.429688 168.347656 69.429688 187.222656 C 69.429688 206.089844 59.871094 221.796875 47.242188 225.15625 C 45.089844 225.730469 43.03125 223.964844 43.289062 221.757812 Z M 43.296875 221.710938 " clip-rule="nonzero"/></clipPath><clipPath id="a79e559e16"><path d="M 43.296875 221.710938 C 43.484375 220.101562 43.671875 218.285156 43.855469 216.300781 C 43.9375 215.308594 44.027344 214.277344 44.117188 213.207031 C 44.203125 212.140625 44.273438 211.035156 44.355469 209.898438 C 44.503906 207.628906 44.640625 205.230469 44.742188 202.753906 C 44.804688 201.515625 44.839844 200.253906 44.882812 198.980469 C 44.902344 198.339844 44.925781 197.699219 44.945312 197.054688 C 44.957031 196.410156 44.96875 195.761719 44.980469 195.113281 C 45.042969 192.507812 45.066406 189.867188 45.070312 187.222656 C 45.070312 184.578125 45.035156 181.9375 44.976562 179.332031 C 44.960938 178.03125 44.921875 176.742188 44.875 175.464844 C 44.835938 174.191406 44.796875 172.929688 44.734375 171.691406 C 44.632812 169.214844 44.496094 166.816406 44.347656 164.546875 C 44.195312 162.273438 44.027344 160.128906 43.847656 158.144531 C 43.667969 156.160156 43.476562 154.34375 43.289062 152.734375 C 43.289062 152.71875 43.285156 152.703125 43.285156 152.6875 C 43.027344 150.480469 45.078125 148.714844 47.230469 149.285156 C 59.867188 152.640625 69.429688 168.347656 69.429688 187.222656 C 69.429688 206.089844 59.871094 221.796875 47.242188 225.15625 C 45.089844 225.730469 43.03125 223.964844 43.289062 221.757812 L 43.296875 221.710938 " clip-rule="nonzero"/></clipPath><clipPath id="342a1b9924"><path d="M 41.917969 225.714844 L 43.035156 148.335938 L 70.539062 148.730469 L 69.425781 226.109375 Z M 41.917969 225.714844 " clip-rule="nonzero"/></clipPath><linearGradient x1="0.0892364" gradientTransform="matrix(370.753071, 5.326717, 5.33883, -369.911891, 9.390988, 186.644636)" y1="0" x2="0.163409" gradientUnits="userSpaceOnUse" y2="0" id="ca94aab37d"><stop stop-opacity="1" stop-color="rgb(68.978882%, 52.198792%, 32.879639%)" offset="0"/><stop stop-opacity="1" stop-color="rgb(68.788147%, 52.189636%, 32.688904%)" offset="0.0625"/><stop stop-opacity="1" stop-color="rgb(68.598938%, 52.079773%, 32.499695%)" offset="0.09375"/><stop stop-opacity="1" stop-color="rgb(68.588257%, 51.878357%, 32.499695%)" offset="0.125"/><stop stop-opacity="1" stop-color="rgb(68.476868%, 51.676941%, 32.499695%)" offset="0.15625"/><stop stop-opacity="1" stop-color="rgb(68.278503%, 51.487732%, 32.492065%)" offset="0.1875"/><stop stop-opacity="1" stop-color="rgb(68.077087%, 51.399231%, 32.408142%)" offset="0.21875"/><stop stop-opacity="1" stop-color="rgb(67.878723%, 51.387024%, 32.264709%)" offset="0.25"/><stop stop-opacity="1" stop-color="rgb(67.706299%, 51.275635%, 32.199097%)" offset="0.28125"/><stop stop-opacity="1" stop-color="rgb(67.553711%, 51.075745%, 32.199097%)" offset="0.3125"/><stop stop-opacity="1" stop-color="rgb(67.375183%, 50.875854%, 32.199097%)" offset="0.34375"/><stop stop-opacity="1" stop-color="rgb(67.185974%, 50.674438%, 32.185364%)" offset="0.375"/><stop stop-opacity="1" stop-color="rgb(67.086792%, 50.386047%, 31.985474%)" offset="0.4375"/><stop stop-opacity="1" stop-color="rgb(66.973877%, 50.19989%, 31.799316%)" offset="0.46875"/><stop stop-opacity="1" stop-color="rgb(66.772461%, 50.184631%, 31.799316%)" offset="0.5"/><stop stop-opacity="1" stop-color="rgb(66.572571%, 50.071716%, 31.799316%)" offset="0.53125"/><stop stop-opacity="1" stop-color="rgb(66.372681%, 49.871826%, 31.785583%)" offset="0.5625"/><stop stop-opacity="1" stop-color="rgb(66.085815%, 49.584961%, 31.585693%)" offset="0.625"/><stop stop-opacity="1" stop-color="rgb(65.885925%, 49.385071%, 31.385803%)" offset="0.6875"/><stop stop-opacity="1" stop-color="rgb(65.769958%, 49.27063%, 31.269836%)" offset="0.71875"/><stop stop-opacity="1" stop-color="rgb(65.568542%, 49.069214%, 31.083679%)" offset="0.75"/><stop stop-opacity="1" stop-color="rgb(65.368652%, 48.867798%, 30.999756%)" offset="0.78125"/><stop stop-opacity="1" stop-color="rgb(65.168762%, 48.683167%, 30.999756%)" offset="0.8125"/><stop stop-opacity="1" stop-color="rgb(64.883423%, 48.582458%, 30.982971%)" offset="0.875"/><stop stop-opacity="1" stop-color="rgb(64.698792%, 48.466492%, 30.867004%)" offset="0.90625"/><stop stop-opacity="1" stop-color="rgb(64.683533%, 48.266602%, 30.683899%)" offset="0.9375"/><stop stop-opacity="1" stop-color="rgb(64.483643%, 47.982788%, 30.599976%)" offset="1"/></linearGradient><clipPath id="fd549d5da1"><path d="M 14.945312 149 L 41.449219 149 L 41.449219 225.433594 L 14.945312 225.433594 Z M 14.945312 149 " clip-rule="nonzero"/></clipPath><clipPath id="90257c1e6d"><path d="M 37.132812 149.285156 C 39.285156 148.714844 41.332031 150.480469 41.078125 152.6875 C 41.074219 152.703125 41.074219 152.71875 41.070312 152.734375 C 40.886719 154.34375 40.699219 156.160156 40.515625 158.144531 C 40.339844 160.128906 40.167969 162.273438 40.015625 164.546875 C 39.871094 166.816406 39.730469 169.214844 39.628906 171.691406 C 39.566406 172.929688 39.527344 174.191406 39.488281 175.464844 C 39.445312 176.742188 39.40625 178.03125 39.386719 179.332031 C 39.328125 181.9375 39.296875 184.578125 39.296875 187.222656 C 39.296875 189.867188 39.320312 192.507812 39.382812 195.113281 C 39.394531 195.761719 39.40625 196.410156 39.417969 197.054688 C 39.441406 197.699219 39.460938 198.339844 39.480469 198.980469 C 39.523438 200.253906 39.558594 201.515625 39.621094 202.753906 C 39.726562 205.230469 39.863281 207.628906 40.007812 209.898438 C 40.089844 211.035156 40.160156 212.140625 40.246094 213.207031 C 40.335938 214.277344 40.425781 215.308594 40.507812 216.300781 C 40.691406 218.285156 40.878906 220.101562 41.066406 221.710938 L 41.070312 221.757812 C 41.328125 223.964844 39.273438 225.730469 37.121094 225.15625 C 24.492188 221.796875 14.933594 206.089844 14.933594 187.222656 C 14.933594 168.347656 24.496094 152.640625 37.132812 149.285156 Z M 37.132812 149.285156 " clip-rule="nonzero"/></clipPath><clipPath id="16ee070feb"><path d="M 37.132812 149.285156 C 39.285156 148.714844 41.332031 150.480469 41.078125 152.6875 C 41.074219 152.703125 41.074219 152.71875 41.070312 152.734375 C 40.886719 154.34375 40.699219 156.160156 40.515625 158.144531 C 40.339844 160.128906 40.167969 162.273438 40.015625 164.546875 C 39.871094 166.816406 39.730469 169.214844 39.628906 171.691406 C 39.566406 172.929688 39.527344 174.191406 39.488281 175.464844 C 39.445312 176.742188 39.40625 178.03125 39.386719 179.332031 C 39.328125 181.9375 39.296875 184.578125 39.296875 187.222656 C 39.296875 189.867188 39.320312 192.507812 39.382812 195.113281 C 39.394531 195.761719 39.40625 196.410156 39.417969 197.054688 C 39.441406 197.699219 39.460938 198.339844 39.480469 198.980469 C 39.523438 200.253906 39.558594 201.515625 39.621094 202.753906 C 39.726562 205.230469 39.863281 207.628906 40.007812 209.898438 C 40.089844 211.035156 40.160156 212.140625 40.246094 213.207031 C 40.335938 214.277344 40.425781 215.308594 40.507812 216.300781 C 40.691406 218.285156 40.878906 220.101562 41.066406 221.710938 L 41.070312 221.757812 C 41.328125 223.964844 39.273438 225.730469 37.121094 225.15625 C 24.492188 221.796875 14.933594 206.089844 14.933594 187.222656 C 14.933594 168.347656 24.496094 152.640625 37.132812 149.285156 " clip-rule="nonzero"/></clipPath><clipPath id="0d40dd9943"><path d="M 13.820312 225.714844 L 14.941406 148.335938 L 42.445312 148.730469 L 41.328125 226.109375 Z M 13.820312 225.714844 " clip-rule="nonzero"/></clipPath><linearGradient x1="0.0135179" gradientTransform="matrix(370.753071, 5.326717, 5.33883, -369.911891, 9.384892, 186.761716)" y1="0" x2="0.0876605" gradientUnits="userSpaceOnUse" y2="0" id="70419603dc"><stop stop-opacity="1" stop-color="rgb(74.055481%, 56.855774%, 35.299683%)" offset="0"/><stop stop-opacity="1" stop-color="rgb(73.956299%, 56.756592%, 35.299683%)" offset="0.03125"/><stop stop-opacity="1" stop-color="rgb(73.75946%, 56.578064%, 35.281372%)" offset="0.0625"/><stop stop-opacity="1" stop-color="rgb(73.480225%, 56.481934%, 35.081482%)" offset="0.125"/><stop stop-opacity="1" stop-color="rgb(73.298645%, 56.365967%, 34.899902%)" offset="0.15625"/><stop stop-opacity="1" stop-color="rgb(73.284912%, 56.169128%, 34.899902%)" offset="0.1875"/><stop stop-opacity="1" stop-color="rgb(73.171997%, 55.97229%, 34.899902%)" offset="0.21875"/><stop stop-opacity="1" stop-color="rgb(72.972107%, 55.7724%, 34.886169%)" offset="0.25"/><stop stop-opacity="1" stop-color="rgb(72.679138%, 55.485535%, 34.686279%)" offset="0.3125"/><stop stop-opacity="1" stop-color="rgb(72.33429%, 55.290222%, 34.490967%)" offset="0.375"/><stop stop-opacity="1" stop-color="rgb(72.084045%, 55.183411%, 34.384155%)" offset="0.40625"/><stop stop-opacity="1" stop-color="rgb(71.891785%, 54.988098%, 34.191895%)" offset="0.4375"/><stop stop-opacity="1" stop-color="rgb(71.794128%, 54.695129%, 34.098816%)" offset="0.5"/><stop stop-opacity="1" stop-color="rgb(71.69342%, 54.499817%, 34.098816%)" offset="0.53125"/><stop stop-opacity="1" stop-color="rgb(71.496582%, 54.499817%, 34.098816%)" offset="0.5625"/><stop stop-opacity="1" stop-color="rgb(71.299744%, 54.399109%, 33.999634%)" offset="0.59375"/><stop stop-opacity="1" stop-color="rgb(71.099854%, 54.199219%, 33.799744%)" offset="0.625"/><stop stop-opacity="1" stop-color="rgb(70.903015%, 54.00238%, 33.699036%)" offset="0.65625"/><stop stop-opacity="1" stop-color="rgb(70.706177%, 53.805542%, 33.699036%)" offset="0.6875"/><stop stop-opacity="1" stop-color="rgb(70.507812%, 53.608704%, 33.604431%)" offset="0.71875"/><stop stop-opacity="1" stop-color="rgb(70.309448%, 53.408813%, 33.409119%)" offset="0.75"/><stop stop-opacity="1" stop-color="rgb(70.014954%, 53.114319%, 33.303833%)" offset="0.875"/><stop stop-opacity="1" stop-color="rgb(69.720459%, 52.819824%, 33.210754%)" offset="0.90625"/><stop stop-opacity="1" stop-color="rgb(69.523621%, 52.624512%, 33.024597%)" offset="0.9375"/><stop stop-opacity="1" stop-color="rgb(69.326782%, 52.513123%, 32.913208%)" offset="0.96875"/><stop stop-opacity="1" stop-color="rgb(69.126892%, 52.49939%, 32.899475%)" offset="1"/></linearGradient></defs><rect x="-37.5" width="450" fill="#ffffff" y="-37.499999" height="449.999989" fill-opacity="1"/><rect x="-37.5" width="450" fill="#f8f5e4" y="-37.499999" height="449.999989" fill-opacity="1"/><g clip-path="url(#f1e1cab978)"><g clip-path="url(#daa9ce169b)"><g clip-path="url(#cda54fb803)"><g clip-path="url(#24d4b83ac3)"><path fill="url(#b605d6e0bb)" d="M 304.292969 227.269531 L 305.421875 149.039062 L 361.023438 149.839844 L 359.894531 228.070312 Z M 304.292969 227.269531 " fill-rule="nonzero"/></g></g></g></g><g clip-path="url(#21d01d5738)"><g clip-path="url(#057493c75e)"><g clip-path="url(#d4e5cb0ea7)"><g clip-path="url(#aef84b2378)"><path fill="url(#34e45a0603)" d="M 207.171875 228.257812 L 208.277344 151.441406 L 238.199219 151.871094 L 237.089844 228.6875 Z M 207.171875 228.257812 " fill-rule="nonzero"/></g></g></g></g><g clip-path="url(#e4c4eb3ec1)"><g clip-path="url(#cfde18a982)"><g clip-path="url(#e8705f9de7)"><g clip-path="url(#7d63e34d79)"><path fill="url(#340f326a4e)" d="M 231.554688 224.910156 L 232.691406 146.089844 L 264.230469 146.542969 L 263.09375 225.363281 Z M 231.554688 224.910156 " fill-rule="nonzero"/></g></g></g></g><g clip-path="url(#1560afdad3)"><g clip-path="url(#7039875e94)"><g clip-path="url(#e44b346a55)"><g clip-path="url(#c40600b617)"><path fill="url(#076b8b92cc)" d="M 110.636719 226.816406 L 111.761719 148.851562 L 167.359375 149.648438 L 166.234375 227.613281 Z M 110.636719 226.816406 " fill-rule="nonzero"/></g></g></g></g><g clip-path="url(#70390f41c6)"><g clip-path="url(#7145b5ba80)"><g clip-path="url(#a79e559e16)"><g clip-path="url(#342a1b9924)"><path fill="url(#ca94aab37d)" d="M 41.921875 225.417969 L 43.035156 148.429688 L 70.535156 148.824219 L 69.421875 225.8125 Z M 41.921875 225.417969 " fill-rule="nonzero"/></g></g></g></g><g clip-path="url(#fd549d5da1)"><g clip-path="url(#90257c1e6d)"><g clip-path="url(#16ee070feb)"><g clip-path="url(#0d40dd9943)"><path fill="url(#70419603dc)" d="M 13.839844 225.417969 L 14.949219 148.429688 L 42.441406 148.824219 L 41.328125 225.8125 Z M 13.839844 225.417969 " fill-rule="nonzero"/></g></g></g></g><g fill="#000000" fill-opacity="1"><g transform="translate(20.643251, 124.797532)"><g><path d="M 4.28125 -1.765625 L 4.15625 -2.84375 L 4.28125 -15.34375 L 4.109375 -17.046875 L 4.328125 -27.9375 L 4.15625 -30.328125 L 4.28125 -33.703125 L 4.21875 -34.71875 L 4.28125 -35.921875 L 4.15625 -36.953125 L 4.15625 -38.203125 L 4.734375 -39.390625 L 5.984375 -39.96875 L 12.890625 -39.859375 L 13.90625 -40.078125 L 16.140625 -39.796875 L 17.15625 -40.03125 L 23.03125 -39.859375 L 25.265625 -39.34375 L 26.234375 -39 L 27.3125 -38.484375 L 28.28125 -37.921875 L 29.078125 -37.28125 L 29.9375 -36.71875 L 30.78125 -35.921875 L 32.671875 -33.296875 L 33.0625 -32.09375 L 33.53125 -30.046875 L 33.640625 -28.28125 L 33.578125 -26.34375 L 32.890625 -24.28125 L 31.8125 -22.0625 L 31.421875 -20.984375 L 31.984375 -19.671875 L 32.890625 -18.875 L 33.640625 -18.015625 L 34.671875 -15.671875 L 35.296875 -13.625 L 35.171875 -9.015625 L 34.71875 -7.921875 L 34.375 -6.84375 L 33.8125 -5.703125 L 32.265625 -3.59375 L 29.984375 -1.765625 L 28.96875 -1.25 L 25.765625 -0.34375 L 24.75 -0.171875 L 18.875 0.109375 L 17.734375 -0.0625 L 9.46875 0.0625 L 7.75 -0.109375 L 5.875 0.0625 L 4.796875 -0.625 Z M 15.96875 -24.34375 L 20.359375 -24.515625 L 22.015625 -25.09375 L 22.859375 -25.765625 L 23.265625 -27.421875 L 23.09375 -29.140625 L 22.640625 -30.046875 L 21.71875 -30.5 L 15.84375 -30.90625 L 14.765625 -30.21875 L 14.078125 -28.5625 L 14.140625 -26.625 L 14.765625 -25.03125 Z M 15.796875 -9.125 L 20.1875 -9.015625 L 23.3125 -9.296875 L 24.28125 -9.921875 L 24.921875 -10.71875 L 25.203125 -12.375 L 24.859375 -13.796875 L 24.28125 -14.828125 L 23.3125 -15.21875 L 17.953125 -15.734375 L 16.765625 -15.625 L 15.671875 -15.796875 L 14.703125 -15.046875 L 14.203125 -14.078125 L 14.03125 -10.65625 L 14.765625 -9.515625 Z M 15.796875 -9.125 "/></g></g></g><g fill="#000000" fill-opacity="1"><g transform="translate(120.544633, 124.797532)"><g><path d="M 19.84375 0.171875 L 18.703125 0.0625 L 17.5625 0.171875 L 16.25 0.109375 L 15.171875 -0.109375 L 12.828125 0.0625 L 11.796875 0 L 10.546875 0.109375 L 6.4375 0.0625 L 4.734375 -0.6875 L 4.28125 -2.21875 L 4.15625 -3.484375 L 4.328125 -7.40625 L 4.15625 -8.546875 L 4.28125 -9.640625 L 4.328125 -18.875 L 4.15625 -19.90625 L 4.21875 -24.578125 L 4.328125 -25.65625 L 4.15625 -26.859375 L 4.28125 -32.4375 L 4.109375 -33.703125 L 4.28125 -36.03125 L 4.15625 -38.203125 L 4.796875 -39.390625 L 5.984375 -39.859375 L 7.125 -39.796875 L 8.265625 -39.90625 L 9.296875 -39.796875 L 10.375 -40.03125 L 11.515625 -39.859375 L 16.1875 -39.96875 L 17.328125 -39.859375 L 18.296875 -39.90625 L 19.4375 -39.796875 L 20.703125 -39.90625 L 25.3125 -39.96875 L 26.34375 -39.734375 L 27.53125 -39.734375 L 28.671875 -39.28125 L 29.1875 -38.203125 L 29.3125 -34.78125 L 29.25 -33.640625 L 29.3125 -32.5 L 28.734375 -31.46875 L 27.53125 -30.78125 L 26.453125 -30.734375 L 18.296875 -30.84375 L 17.21875 -30.625 L 16.140625 -30.671875 L 14.875 -30.21875 L 14.375 -29.140625 L 14.375 -27.375 L 14.828125 -25.59375 L 16.015625 -25.09375 L 19.328125 -25.203125 L 21.71875 -25.03125 L 22.921875 -25.140625 L 26.28125 -25.140625 L 27.59375 -24.40625 L 28.171875 -22.8125 L 28 -17.671875 L 27.59375 -16.53125 L 26.453125 -16.078125 L 25.140625 -16.140625 L 24 -16.015625 L 21.671875 -16.078125 L 19.5 -15.96875 L 17.671875 -16.140625 L 15.96875 -16.078125 L 14.9375 -15.453125 L 14.421875 -14.25 L 14.421875 -10.65625 L 14.875 -9.640625 L 16.078125 -9.0625 L 17.328125 -9.171875 L 18.421875 -9.015625 L 19.671875 -9.0625 L 20.8125 -8.953125 L 22.6875 -9.171875 L 25.59375 -9.125 L 26.6875 -8.953125 L 28 -9.0625 L 29.1875 -8.546875 L 29.8125 -7.40625 L 29.8125 -1.65625 L 29.1875 -0.453125 L 28 0.0625 Z M 19.84375 0.171875 "/></g></g></g><g fill="#000000" fill-opacity="1"><g transform="translate(315.587914, 124.797532)"><g><path d="M 33.640625 -0.96875 L 32.78125 -1.703125 L 31.296875 -3.359375 L 22.46875 -12.140625 L 21.5 -12.765625 L 20.75 -13.625 L 16.703125 -17.5 L 15.96875 -18.46875 L 15.21875 -18.765625 L 14.828125 -17.78125 L 14.703125 -16.65625 L 14.65625 -2.21875 L 14.078125 -0.453125 L 12.9375 0.109375 L 11.75 0.171875 L 9.515625 0 L 8.265625 0.109375 L 5.921875 0 L 4.734375 -0.40625 L 4.21875 -1.484375 L 4.109375 -6.265625 L 4.21875 -7.359375 L 4.109375 -16.703125 L 4.28125 -17.671875 L 4.15625 -20.015625 L 4.21875 -20.984375 L 4.21875 -38.25 L 4.734375 -39.34375 L 6.046875 -39.90625 L 7.75 -39.515625 L 9.0625 -38.828125 L 9.921875 -38.140625 L 21.15625 -26.796875 L 22.75 -25.546875 L 26.796875 -21.5 L 27.65625 -21.09375 L 28 -22.0625 L 28.109375 -32.265625 L 28 -33.53125 L 28.171875 -35.921875 L 28 -36.828125 L 28.046875 -38.03125 L 28.671875 -39.234375 L 29.765625 -39.859375 L 36.828125 -39.90625 L 37.96875 -39.28125 L 38.546875 -38.140625 L 38.71875 -30.21875 L 38.546875 -28.84375 L 38.546875 -23.203125 L 38.71875 -22.234375 L 38.59375 -1.421875 L 38.03125 -0.28125 L 36.78125 0.109375 L 35.171875 -0.0625 Z M 33.640625 -0.96875 "/></g></g></g><g fill="#000000" fill-opacity="1"><g transform="translate(213.117135, 124.797532)"><g><path d="M 33.640625 0.109375 L 32.4375 0 L 31.125 -0.5625 L 29.984375 -1.421875 L 29.640625 -2.453125 L 29.140625 -3.53125 L 28.046875 -4.453125 L 26.796875 -5.078125 L 25.546875 -4.90625 L 24.515625 -5.015625 L 18.921875 -4.953125 L 17.90625 -5.125 L 15.515625 -4.90625 L 14.421875 -5.078125 L 13.234375 -4.453125 L 12.140625 -3.359375 L 11.125 -1.484375 L 10.03125 -0.453125 L 8.71875 -0.0625 L 5.53125 0.0625 L 4.390625 -0.0625 L 2.171875 0.0625 L 1.03125 -0.28125 L 0.734375 -1.703125 L 1.078125 -2.84375 L 2.21875 -5.125 L 2.515625 -6.15625 L 3.140625 -6.953125 L 3.984375 -9.234375 L 5.015625 -11.0625 L 5.421875 -12.203125 L 5.984375 -13.0625 L 6.328125 -14.3125 L 12.140625 -26.515625 L 12.484375 -27.53125 L 13.109375 -28.625 L 13.40625 -29.765625 L 14.03125 -30.625 L 16.3125 -35.859375 L 16.8125 -36.65625 L 17.21875 -37.796875 L 17.734375 -38.765625 L 18.765625 -39.734375 L 20.578125 -40.359375 L 22.46875 -39.796875 L 23.4375 -38.765625 L 24.515625 -36.78125 L 24.859375 -35.75 L 25.484375 -34.71875 L 25.828125 -33.578125 L 29.59375 -25.65625 L 29.984375 -24.453125 L 31.1875 -22.34375 L 31.53125 -21.4375 L 32.046875 -20.578125 L 32.390625 -19.328125 L 32.953125 -18.25 L 33.53125 -17.390625 L 35.6875 -12.203125 L 36.828125 -10.15625 L 37.625 -8.046875 L 39.171875 -5.078125 L 40.03125 -2.96875 L 40.421875 -1.65625 L 40.25 -0.28125 L 38.65625 0 L 36.890625 0.0625 L 35.8125 -0.0625 Z M 20.703125 -14.078125 L 22.984375 -14.140625 L 23.828125 -14.59375 L 24.0625 -15.625 L 21.375 -21.890625 L 20.578125 -22.34375 L 19.953125 -21.84375 L 17.28125 -15.671875 L 17.328125 -14.59375 L 18.25 -14.203125 L 19.5625 -14.3125 Z M 20.703125 -14.078125 "/></g></g></g><g fill="#000000" fill-opacity="1"><g transform="translate(24.805056, 288.036895)"><g><path d="M 14.875 0.109375 L 13.109375 0.0625 L 11.453125 -0.515625 L 10.71875 -1.765625 L 10.828125 -2.84375 L 10.890625 -6.15625 L 10.78125 -7.359375 L 10.828125 -11.96875 L 10.953125 -13.109375 L 10.78125 -21.609375 L 10.890625 -23.203125 L 10.828125 -24.34375 L 10.890625 -25.59375 L 10.78125 -27.203125 L 10.890625 -29.015625 L 10.265625 -30.15625 L 9.171875 -30.734375 L 3.765625 -30.84375 L 2.625 -30.734375 L 1.59375 -31.296875 L 1.078125 -32.328125 L 0.96875 -34.09375 L 1.078125 -36.953125 L 1.03125 -38.09375 L 1.703125 -39.390625 L 2.796875 -39.96875 L 6.78125 -39.734375 L 8.546875 -39.90625 L 11.921875 -39.734375 L 12.9375 -39.96875 L 14.203125 -39.859375 L 15.390625 -40.03125 L 16.484375 -39.96875 L 17.625 -39.734375 L 22.234375 -39.96875 L 23.3125 -39.859375 L 24.515625 -40.03125 L 25.59375 -39.90625 L 29.140625 -39.90625 L 30.21875 -39.171875 L 30.84375 -38.03125 L 30.78125 -32.609375 L 30.109375 -31.359375 L 29.140625 -30.734375 L 28.109375 -30.78125 L 26.90625 -30.625 L 24.796875 -30.90625 L 22.578125 -30.78125 L 21.5 -30.109375 L 21.03125 -28.390625 L 20.875 -23.4375 L 21.03125 -22.234375 L 20.921875 -13.0625 L 21.09375 -11.796875 L 20.984375 -10.78125 L 21.03125 -8.5 L 20.921875 -7.296875 L 21.09375 -5.125 L 20.921875 -2.171875 L 20.359375 -0.5625 L 18.703125 0 Z M 14.875 0.109375 "/></g></g></g><g fill="#000000" fill-opacity="1"><g transform="translate(93.394186, 288.036895)"><g><path d="M 4.15625 -1.59375 L 4.328125 -6.265625 L 4.15625 -7.296875 L 4.15625 -24.34375 L 4.28125 -25.484375 L 4.21875 -26.859375 L 4.328125 -29.015625 L 4.109375 -31.359375 L 4.21875 -32.5 L 4.109375 -36.953125 L 4.21875 -38.203125 L 4.796875 -39.34375 L 6.046875 -39.90625 L 11.6875 -39.796875 L 12.9375 -39.90625 L 14.140625 -39.28125 L 14.65625 -38.203125 L 14.765625 -36.09375 L 14.65625 -34.84375 L 14.59375 -30.390625 L 14.65625 -29.359375 L 14.65625 -28.171875 L 14.703125 -26.90625 L 15.28125 -25.828125 L 16.359375 -25.3125 L 19.734375 -25.265625 L 20.75 -25.375 L 21.953125 -25.265625 L 24.171875 -25.484375 L 25.265625 -25.3125 L 26.390625 -25.9375 L 27.03125 -27.078125 L 27.078125 -31.53125 L 26.90625 -32.609375 L 27.03125 -34.953125 L 26.90625 -35.921875 L 26.96875 -38.09375 L 27.53125 -39.453125 L 29.1875 -39.859375 L 35.75 -39.796875 L 36.890625 -39.34375 L 37.40625 -38.140625 L 37.34375 -9.515625 L 37.515625 -8.609375 L 37.34375 -6.78125 L 37.453125 -1.59375 L 36.78125 -0.625 L 35.6875 0.109375 L 33.359375 -0.0625 L 32.21875 0.0625 L 29.25 0.0625 L 27.59375 -0.6875 L 26.96875 -1.59375 L 26.90625 -14.203125 L 26.34375 -15.28125 L 25.265625 -15.90625 L 24.234375 -15.90625 L 23.03125 -16.078125 L 16.3125 -16.015625 L 15.109375 -15.28125 L 14.59375 -14.078125 L 14.59375 -3.984375 L 14.703125 -2.734375 L 14.59375 -1.65625 L 14.140625 -0.5625 L 12.9375 0.109375 L 10.546875 0.0625 L 9.34375 0.171875 L 7.0625 0.0625 L 5.921875 0.109375 L 4.84375 -0.515625 Z M 4.15625 -1.59375 "/></g></g></g><g fill="#000000" fill-opacity="1"><g transform="translate(171.846348, 288.036895)"><g><path d="M 19.84375 0.171875 L 18.703125 0.0625 L 17.5625 0.171875 L 16.25 0.109375 L 15.171875 -0.109375 L 12.828125 0.0625 L 11.796875 0 L 10.546875 0.109375 L 6.4375 0.0625 L 4.734375 -0.6875 L 4.28125 -2.21875 L 4.15625 -3.484375 L 4.328125 -7.40625 L 4.15625 -8.546875 L 4.28125 -9.640625 L 4.328125 -18.875 L 4.15625 -19.90625 L 4.21875 -24.578125 L 4.328125 -25.65625 L 4.15625 -26.859375 L 4.28125 -32.4375 L 4.109375 -33.703125 L 4.28125 -36.03125 L 4.15625 -38.203125 L 4.796875 -39.390625 L 5.984375 -39.859375 L 7.125 -39.796875 L 8.265625 -39.90625 L 9.296875 -39.796875 L 10.375 -40.03125 L 11.515625 -39.859375 L 16.1875 -39.96875 L 17.328125 -39.859375 L 18.296875 -39.90625 L 19.4375 -39.796875 L 20.703125 -39.90625 L 25.3125 -39.96875 L 26.34375 -39.734375 L 27.53125 -39.734375 L 28.671875 -39.28125 L 29.1875 -38.203125 L 29.3125 -34.78125 L 29.25 -33.640625 L 29.3125 -32.5 L 28.734375 -31.46875 L 27.53125 -30.78125 L 26.453125 -30.734375 L 18.296875 -30.84375 L 17.21875 -30.625 L 16.140625 -30.671875 L 14.875 -30.21875 L 14.375 -29.140625 L 14.375 -27.375 L 14.828125 -25.59375 L 16.015625 -25.09375 L 19.328125 -25.203125 L 21.71875 -25.03125 L 22.921875 -25.140625 L 26.28125 -25.140625 L 27.59375 -24.40625 L 28.171875 -22.8125 L 28 -17.671875 L 27.59375 -16.53125 L 26.453125 -16.078125 L 25.140625 -16.140625 L 24 -16.015625 L 21.671875 -16.078125 L 19.5 -15.96875 L 17.671875 -16.140625 L 15.96875 -16.078125 L 14.9375 -15.453125 L 14.421875 -14.25 L 14.421875 -10.65625 L 14.875 -9.640625 L 16.078125 -9.0625 L 17.328125 -9.171875 L 18.421875 -9.015625 L 19.671875 -9.0625 L 20.8125 -8.953125 L 22.6875 -9.171875 L 25.59375 -9.125 L 26.6875 -8.953125 L 28 -9.0625 L 29.1875 -8.546875 L 29.8125 -7.40625 L 29.8125 -1.65625 L 29.1875 -0.453125 L 28 0.0625 Z M 19.84375 0.171875 "/></g></g></g><g fill="#000000" fill-opacity="1"><g transform="translate(241.233646, 288.036895)"><g><path d="M 4.28125 -2.34375 L 4.28125 -10.78125 L 4.15625 -11.921875 L 4.21875 -16.53125 L 4.328125 -17.625 L 4.21875 -18.703125 L 4.21875 -19.84375 L 4.15625 -21.09375 L 4.328125 -23.375 L 4.21875 -24.515625 L 4.15625 -37.578125 L 4.84375 -39.171875 L 5.875 -39.734375 L 9.234375 -40.03125 L 10.484375 -39.96875 L 11.625 -39.734375 L 12.765625 -39.734375 L 13.796875 -40.03125 L 14.9375 -40.03125 L 16.078125 -39.796875 L 19.5 -39.796875 L 21.15625 -39.90625 L 22.984375 -39.859375 L 26.234375 -39.109375 L 28.390625 -38.375 L 30.390625 -37.28125 L 33.640625 -33.875 L 34.265625 -32.953125 L 34.71875 -31.984375 L 35.75 -28.734375 L 35.921875 -27.59375 L 36.03125 -24 L 35.296875 -20.703125 L 33.0625 -16.703125 L 32.265625 -16.015625 L 31.46875 -15.171875 L 30.953125 -13.90625 L 31.015625 -12.546875 L 31.703125 -11.6875 L 33.53125 -8.71875 L 34.03125 -7.703125 L 35.984375 -4.796875 L 36.4375 -3.703125 L 37.125 -2.90625 L 37.75 -1.65625 L 37.40625 -0.40625 L 36.3125 0.109375 L 34.4375 0.171875 L 33.359375 0.0625 L 28.84375 0.109375 L 26.90625 -0.40625 L 25.65625 -1.421875 L 25.03125 -2.390625 L 24.578125 -3.53125 L 23.953125 -4.390625 L 22.859375 -6.4375 L 21.671875 -8.15625 L 21.203125 -9.171875 L 20.53125 -10.3125 L 19.390625 -11.296875 L 16.078125 -11.75 L 15 -11.125 L 14.484375 -9.984375 L 14.375 -6.328125 L 14.53125 -5.125 L 14.421875 -4.109375 L 14.421875 -2.171875 L 13.90625 -0.515625 L 12.09375 0.0625 L 10.375 0.0625 L 9.46875 0.171875 L 7.640625 0 L 6.5 0.171875 L 4.84375 -0.5625 Z M 16.078125 -20.875 L 17.328125 -20.984375 L 20.0625 -20.875 L 21.15625 -20.921875 L 22.8125 -21.328125 L 23.828125 -21.78125 L 24.453125 -22.296875 L 25.09375 -23.140625 L 25.59375 -24.28125 L 25.765625 -26 L 25.546875 -27.484375 L 25.203125 -28.390625 L 23.78125 -30.15625 L 22.6875 -30.453125 L 21.203125 -30.5625 L 19.609375 -30.90625 L 17.328125 -30.671875 L 16.1875 -30.734375 L 15 -30.28125 L 14.484375 -29.1875 L 14.375 -26.796875 L 14.484375 -25.828125 L 14.484375 -22.40625 L 14.9375 -21.5 Z M 16.078125 -20.875 "/></g></g></g><g fill="#000000" fill-opacity="1"><g transform="translate(317.519362, 288.036895)"><g><path d="M 19.84375 0.171875 L 18.703125 0.0625 L 17.5625 0.171875 L 16.25 0.109375 L 15.171875 -0.109375 L 12.828125 0.0625 L 11.796875 0 L 10.546875 0.109375 L 6.4375 0.0625 L 4.734375 -0.6875 L 4.28125 -2.21875 L 4.15625 -3.484375 L 4.328125 -7.40625 L 4.15625 -8.546875 L 4.28125 -9.640625 L 4.328125 -18.875 L 4.15625 -19.90625 L 4.21875 -24.578125 L 4.328125 -25.65625 L 4.15625 -26.859375 L 4.28125 -32.4375 L 4.109375 -33.703125 L 4.28125 -36.03125 L 4.15625 -38.203125 L 4.796875 -39.390625 L 5.984375 -39.859375 L 7.125 -39.796875 L 8.265625 -39.90625 L 9.296875 -39.796875 L 10.375 -40.03125 L 11.515625 -39.859375 L 16.1875 -39.96875 L 17.328125 -39.859375 L 18.296875 -39.90625 L 19.4375 -39.796875 L 20.703125 -39.90625 L 25.3125 -39.96875 L 26.34375 -39.734375 L 27.53125 -39.734375 L 28.671875 -39.28125 L 29.1875 -38.203125 L 29.3125 -34.78125 L 29.25 -33.640625 L 29.3125 -32.5 L 28.734375 -31.46875 L 27.53125 -30.78125 L 26.453125 -30.734375 L 18.296875 -30.84375 L 17.21875 -30.625 L 16.140625 -30.671875 L 14.875 -30.21875 L 14.375 -29.140625 L 14.375 -27.375 L 14.828125 -25.59375 L 16.015625 -25.09375 L 19.328125 -25.203125 L 21.71875 -25.03125 L 22.921875 -25.140625 L 26.28125 -25.140625 L 27.59375 -24.40625 L 28.171875 -22.8125 L 28 -17.671875 L 27.59375 -16.53125 L 26.453125 -16.078125 L 25.140625 -16.140625 L 24 -16.015625 L 21.671875 -16.078125 L 19.5 -15.96875 L 17.671875 -16.140625 L 15.96875 -16.078125 L 14.9375 -15.453125 L 14.421875 -14.25 L 14.421875 -10.65625 L 14.875 -9.640625 L 16.078125 -9.0625 L 17.328125 -9.171875 L 18.421875 -9.015625 L 19.671875 -9.0625 L 20.8125 -8.953125 L 22.6875 -9.171875 L 25.59375 -9.125 L 26.6875 -8.953125 L 28 -9.0625 L 29.1875 -8.546875 L 29.8125 -7.40625 L 29.8125 -1.65625 L 29.1875 -0.453125 L 28 0.0625 Z M 19.84375 0.171875 "/></g></g></g></svg>