<svg xmlns="http://www.w3.org/2000/svg" xmlns:xlink="http://www.w3.org/1999/xlink" width="500" zoomAndPan="magnify" viewBox="0 0 375 374.999991" height="500" preserveAspectRatio="xMidYMid meet" version="1.0"><defs><g/><clipPath id="1e43fae2d8"><path d="M 298 152.023438 L 349.722656 152.023438 L 349.722656 225.390625 L 298 225.390625 Z M 298 152.023438 " clip-rule="nonzero"/></clipPath><clipPath id="13dae4f1e1"><path d="M 321.972656 152.367188 C 322.761719 152.503906 323.375 152.984375 323.785156 153.851562 C 325.363281 157.183594 325.203125 161.148438 324.328125 164.644531 C 323.484375 168.015625 321.996094 171.183594 320.691406 174.40625 C 319.382812 177.628906 318.242188 180.988281 318.160156 184.464844 C 318.039062 189.28125 319.980469 193.96875 322.761719 197.902344 C 322.445312 193.351562 322.230469 188.695312 323.429688 184.296875 C 324.972656 178.667969 328.753906 173.761719 329.683594 168 C 330.050781 165.730469 330.015625 163.199219 329.445312 160.960938 C 328.875 158.707031 327.503906 156.769531 326.671875 154.617188 C 325.453125 151.457031 329.292969 152.820312 330.796875 153.441406 C 333.507812 154.566406 335.933594 156.175781 338.066406 158.199219 C 341.351562 161.308594 343.914062 165.199219 345.742188 169.332031 C 348.441406 175.414062 349.675781 182.109375 349.675781 188.746094 C 349.675781 208.894531 338.195312 225.222656 324.03125 225.222656 C 309.867188 225.222656 298.382812 208.894531 298.382812 188.746094 C 298.382812 178.398438 301.40625 167.335938 308.589844 159.621094 C 310.523438 157.546875 312.773438 155.742188 315.300781 154.441406 C 317.15625 153.488281 318.910156 152.589844 321.019531 152.347656 C 321.359375 152.308594 321.679688 152.316406 321.972656 152.367188 Z M 321.972656 152.367188 " clip-rule="nonzero"/></clipPath><clipPath id="9b5162bdd8"><path d="M 321.972656 152.367188 C 322.761719 152.503906 323.375 152.984375 323.785156 153.851562 C 325.363281 157.183594 325.203125 161.148438 324.328125 164.644531 C 323.484375 168.015625 321.996094 171.183594 320.691406 174.40625 C 319.382812 177.628906 318.242188 180.988281 318.160156 184.464844 C 318.039062 189.28125 319.980469 193.96875 322.761719 197.902344 C 322.445312 193.351562 322.230469 188.695312 323.429688 184.296875 C 324.972656 178.667969 328.753906 173.761719 329.683594 168 C 330.050781 165.730469 330.015625 163.199219 329.445312 160.960938 C 328.875 158.707031 327.503906 156.769531 326.671875 154.617188 C 325.453125 151.457031 329.292969 152.820312 330.796875 153.441406 C 333.507812 154.566406 335.933594 156.175781 338.066406 158.199219 C 341.351562 161.308594 343.914062 165.199219 345.742188 169.332031 C 348.441406 175.414062 349.675781 182.109375 349.675781 188.746094 C 349.675781 208.894531 338.195312 225.222656 324.03125 225.222656 C 309.867188 225.222656 298.382812 208.894531 298.382812 188.746094 C 298.382812 178.398438 301.40625 167.335938 308.589844 159.621094 C 310.523438 157.546875 312.773438 155.742188 315.300781 154.441406 C 317.15625 153.488281 318.910156 152.589844 321.019531 152.347656 C 321.359375 152.308594 321.679688 152.316406 321.972656 152.367188 " clip-rule="nonzero"/></clipPath><clipPath id="e9238016d3"><path d="M 297.324219 225.207031 L 298.394531 150.71875 L 350.738281 151.472656 L 349.664062 225.960938 Z M 297.324219 225.207031 " clip-rule="nonzero"/></clipPath><linearGradient x1="0.796839" gradientTransform="matrix(348.969812, 5.033503, 5.025152, -349.549762, 19.788994, 184.361476)" y1="0" x2="0.946805" gradientUnits="userSpaceOnUse" y2="0" id="78f9ef7f4b"><stop stop-opacity="1" stop-color="rgb(29.798889%, 18.798828%, 13.299561%)" offset="0"/><stop stop-opacity="1" stop-color="rgb(29.608154%, 18.798828%, 13.299561%)" offset="0.0625"/><stop stop-opacity="1" stop-color="rgb(29.408264%, 18.606567%, 13.299561%)" offset="0.09375"/><stop stop-opacity="1" stop-color="rgb(29.205322%, 18.406677%, 13.105774%)" offset="0.125"/><stop stop-opacity="1" stop-color="rgb(28.912354%, 18.304443%, 12.905884%)" offset="0.140625"/><stop stop-opacity="1" stop-color="rgb(28.710938%, 18.110657%, 12.89978%)" offset="0.15625"/><stop stop-opacity="1" stop-color="rgb(28.604126%, 18.003845%, 12.89978%)" offset="0.1875"/><stop stop-opacity="1" stop-color="rgb(28.407288%, 17.999268%, 12.89978%)" offset="0.21875"/><stop stop-opacity="1" stop-color="rgb(28.207397%, 17.805481%, 12.705994%)" offset="0.25"/><stop stop-opacity="1" stop-color="rgb(28.004456%, 17.605591%, 12.506104%)" offset="0.28125"/><stop stop-opacity="1" stop-color="rgb(27.804565%, 17.456055%, 12.5%)" offset="0.3125"/><stop stop-opacity="1" stop-color="rgb(27.656555%, 17.306519%, 12.356567%)" offset="0.34375"/><stop stop-opacity="1" stop-color="rgb(27.505493%, 17.106628%, 12.205505%)" offset="0.375"/><stop stop-opacity="1" stop-color="rgb(27.304077%, 16.906738%, 12.199402%)" offset="0.40625"/><stop stop-opacity="1" stop-color="rgb(27.104187%, 16.899109%, 12.199402%)" offset="0.4375"/><stop stop-opacity="1" stop-color="rgb(26.908875%, 16.708374%, 12.008667%)" offset="0.46875"/><stop stop-opacity="1" stop-color="rgb(26.708984%, 16.508484%, 11.808777%)" offset="0.5"/><stop stop-opacity="1" stop-color="rgb(26.504517%, 16.305542%, 11.799622%)" offset="0.53125"/><stop stop-opacity="1" stop-color="rgb(26.304626%, 16.105652%, 11.799622%)" offset="0.5625"/><stop stop-opacity="1" stop-color="rgb(26.107788%, 16.099548%, 11.608887%)" offset="0.59375"/><stop stop-opacity="1" stop-color="rgb(25.817871%, 16.007996%, 11.408997%)" offset="0.609375"/><stop stop-opacity="1" stop-color="rgb(25.614929%, 15.815735%, 11.399841%)" offset="0.625"/><stop stop-opacity="1" stop-color="rgb(25.506592%, 15.707397%, 11.399841%)" offset="0.65625"/><stop stop-opacity="1" stop-color="rgb(25.309753%, 15.510559%, 11.210632%)" offset="0.6875"/><stop stop-opacity="1" stop-color="rgb(25.109863%, 15.310669%, 11.009216%)" offset="0.71875"/><stop stop-opacity="1" stop-color="rgb(24.906921%, 15.299988%, 10.998535%)" offset="0.75"/><stop stop-opacity="1" stop-color="rgb(24.707031%, 15.106201%, 10.998535%)" offset="0.78125"/><stop stop-opacity="1" stop-color="rgb(24.510193%, 14.904785%, 10.809326%)" offset="0.8125"/><stop stop-opacity="1" stop-color="rgb(24.310303%, 14.898682%, 10.609436%)" offset="0.84375"/><stop stop-opacity="1" stop-color="rgb(24.107361%, 14.706421%, 10.598755%)" offset="0.875"/><stop stop-opacity="1" stop-color="rgb(23.907471%, 14.506531%, 10.598755%)" offset="0.90625"/><stop stop-opacity="1" stop-color="rgb(23.710632%, 14.309692%, 10.409546%)" offset="0.9375"/><stop stop-opacity="1" stop-color="rgb(23.509216%, 14.109802%, 10.209656%)" offset="0.96875"/><stop stop-opacity="1" stop-color="rgb(23.306274%, 14.099121%, 10.198975%)" offset="1"/></linearGradient><clipPath id="f58426abff"><path d="M 207 154 L 234 154 L 234 226.15625 L 207 226.15625 Z M 207 154 " clip-rule="nonzero"/></clipPath><clipPath id="1c0baaa214"><path d="M 230.785156 154.703125 C 232.058594 155.421875 233.019531 156.761719 233.414062 158.742188 C 234.082031 162.097656 233.699219 165.628906 233.667969 169.019531 C 233.632812 173.011719 233.335938 177.035156 232.210938 180.886719 C 230.277344 187.503906 226.199219 193.355469 224.515625 200.039062 C 223.414062 204.425781 223.308594 209.140625 224.230469 213.570312 C 224.570312 215.1875 225.082031 216.777344 225.851562 218.246094 C 226.597656 219.675781 227.710938 220.859375 228.523438 222.246094 C 229.230469 223.449219 229.972656 226.585938 227.539062 226.078125 C 225.632812 225.679688 224.074219 224.539062 222.488281 223.476562 C 220.761719 222.320312 219.160156 220.976562 217.722656 219.472656 C 214.574219 216.175781 212.289062 212.128906 210.625 207.878906 C 206.894531 198.363281 206.226562 187.664062 208.746094 177.757812 C 211.0625 168.644531 216.328125 159.960938 224.4375 155.222656 C 226.703125 153.898438 229.039062 153.714844 230.785156 154.703125 Z M 230.785156 154.703125 " clip-rule="nonzero"/></clipPath><clipPath id="62a7755846"><path d="M 230.785156 154.703125 C 232.058594 155.421875 233.019531 156.761719 233.414062 158.742188 C 234.082031 162.097656 233.699219 165.628906 233.667969 169.019531 C 233.632812 173.011719 233.335938 177.035156 232.210938 180.886719 C 230.277344 187.503906 226.199219 193.355469 224.515625 200.039062 C 223.414062 204.425781 223.308594 209.140625 224.230469 213.570312 C 224.570312 215.1875 225.082031 216.777344 225.851562 218.246094 C 226.597656 219.675781 227.710938 220.859375 228.523438 222.246094 C 229.230469 223.449219 229.972656 226.585938 227.539062 226.078125 C 225.632812 225.679688 224.074219 224.539062 222.488281 223.476562 C 220.761719 222.320312 219.160156 220.976562 217.722656 219.472656 C 214.574219 216.175781 212.289062 212.128906 210.625 207.878906 C 206.894531 198.363281 206.226562 187.664062 208.746094 177.757812 C 211.0625 168.644531 216.328125 159.960938 224.4375 155.222656 C 226.703125 153.898438 229.039062 153.714844 230.785156 154.703125 " clip-rule="nonzero"/></clipPath><clipPath id="f7768aa3e7"><path d="M 205.179688 226.570312 L 206.230469 153.308594 L 235.128906 153.726562 L 234.078125 226.988281 Z M 205.179688 226.570312 " clip-rule="nonzero"/></clipPath><linearGradient x1="0.534969" gradientTransform="matrix(348.969812, 5.033503, 5.025152, -349.549762, 19.749962, 187.049066)" y1="0" x2="0.61567" gradientUnits="userSpaceOnUse" y2="0" id="23b1bb1651"><stop stop-opacity="1" stop-color="rgb(42.698669%, 29.399109%, 19.999695%)" offset="0"/><stop stop-opacity="1" stop-color="rgb(42.64679%, 29.328918%, 19.999695%)" offset="0.0625"/><stop stop-opacity="1" stop-color="rgb(42.431641%, 29.129028%, 19.934082%)" offset="0.125"/><stop stop-opacity="1" stop-color="rgb(42.134094%, 28.941345%, 19.734192%)" offset="0.1875"/><stop stop-opacity="1" stop-color="rgb(41.946411%, 28.688049%, 19.546509%)" offset="0.25"/><stop stop-opacity="1" stop-color="rgb(41.699219%, 28.346252%, 19.345093%)" offset="0.3125"/><stop stop-opacity="1" stop-color="rgb(41.351318%, 28.157043%, 19.198608%)" offset="0.375"/><stop stop-opacity="1" stop-color="rgb(41.162109%, 27.957153%, 19.161987%)" offset="0.4375"/><stop stop-opacity="1" stop-color="rgb(40.931702%, 27.775574%, 18.962097%)" offset="0.5"/><stop stop-opacity="1" stop-color="rgb(40.54718%, 27.604675%, 18.778992%)" offset="0.625"/><stop stop-opacity="1" stop-color="rgb(40.164185%, 27.264404%, 18.579102%)" offset="0.6875"/><stop stop-opacity="1" stop-color="rgb(39.785767%, 26.885986%, 18.399048%)" offset="0.75"/><stop stop-opacity="1" stop-color="rgb(39.596558%, 26.696777%, 18.395996%)" offset="0.8125"/><stop stop-opacity="1" stop-color="rgb(39.49585%, 26.596069%, 18.296814%)" offset="0.84375"/><stop stop-opacity="1" stop-color="rgb(39.300537%, 26.400757%, 18.099976%)" offset="0.875"/><stop stop-opacity="1" stop-color="rgb(39.009094%, 26.300049%, 18.000793%)" offset="0.9375"/><stop stop-opacity="1" stop-color="rgb(38.807678%, 26.11084%, 17.999268%)" offset="1"/></linearGradient><clipPath id="9bb2c58892"><path d="M 230 148.90625 L 258.652344 148.90625 L 258.652344 222.992188 L 230 222.992188 Z M 230 148.90625 " clip-rule="nonzero"/></clipPath><clipPath id="a9b0686c60"><path d="M 230.441406 213.441406 C 230.902344 209.128906 231.246094 204.917969 232.582031 200.761719 C 233.21875 198.816406 234.085938 196.855469 235.0625 194.792969 C 236.039062 192.730469 237.171875 190.5625 238.273438 188.199219 C 239.367188 185.839844 240.414062 183.261719 241.121094 180.535156 C 241.835938 177.816406 242.21875 174.96875 242.121094 172.261719 C 242.042969 169.558594 241.648438 166.996094 240.976562 164.71875 C 240.804688 164.148438 240.671875 163.574219 240.476562 163.039062 C 240.28125 162.5 240.097656 161.976562 239.890625 161.464844 C 238.976562 158.949219 237.699219 156.339844 235.855469 154.375 C 234.910156 153.367188 233.527344 152.308594 233.128906 150.925781 C 232.039062 147.164062 238.359375 149.609375 239.683594 150.332031 C 245.90625 153.703125 250.875 159.082031 253.980469 165.425781 C 257.128906 171.863281 258.558594 179.089844 258.558594 186.234375 C 258.558594 197.574219 254.964844 210.273438 245.835938 217.660156 C 243.957031 219.179688 241.878906 220.449219 239.667969 221.429688 C 237.613281 222.339844 234.761719 223.441406 232.429688 222.753906 C 229.007812 221.746094 230.210938 215.601562 230.441406 213.441406 Z M 230.441406 213.441406 " clip-rule="nonzero"/></clipPath><clipPath id="db8d2c6f44"><path d="M 230.441406 213.441406 C 230.902344 209.128906 231.246094 204.917969 232.582031 200.761719 C 233.21875 198.816406 234.085938 196.855469 235.0625 194.792969 C 236.039062 192.730469 237.171875 190.5625 238.273438 188.199219 C 239.367188 185.839844 240.414062 183.261719 241.121094 180.535156 C 241.835938 177.816406 242.21875 174.96875 242.121094 172.261719 C 242.042969 169.558594 241.648438 166.996094 240.976562 164.71875 C 240.804688 164.148438 240.671875 163.574219 240.476562 163.039062 C 240.28125 162.5 240.097656 161.976562 239.890625 161.464844 C 238.976562 158.949219 237.699219 156.339844 235.855469 154.375 C 234.910156 153.367188 233.527344 152.308594 233.128906 150.925781 C 232.039062 147.164062 238.359375 149.609375 239.683594 150.332031 C 245.90625 153.703125 250.875 159.082031 253.980469 165.425781 C 257.128906 171.863281 258.558594 179.089844 258.558594 186.234375 C 258.558594 197.574219 254.964844 210.273438 245.835938 217.660156 C 243.957031 219.179688 241.878906 220.449219 239.667969 221.429688 C 237.613281 222.339844 234.761719 223.441406 232.429688 222.753906 C 229.007812 221.746094 230.210938 215.601562 230.441406 213.441406 " clip-rule="nonzero"/></clipPath><clipPath id="6cae788d79"><path d="M 227.910156 223.425781 L 229.015625 146.738281 L 259.65625 147.179688 L 258.554688 223.867188 Z M 227.910156 223.425781 " clip-rule="nonzero"/></clipPath><linearGradient x1="0.600597" gradientTransform="matrix(348.969812, 5.033503, 5.025152, -349.549762, 19.810494, 182.786086)" y1="0" x2="0.685666" gradientUnits="userSpaceOnUse" y2="0" id="8ff71edcf8"><stop stop-opacity="1" stop-color="rgb(39.411926%, 26.699829%, 18.399048%)" offset="0"/><stop stop-opacity="1" stop-color="rgb(39.21814%, 26.612854%, 18.312073%)" offset="0.0625"/><stop stop-opacity="1" stop-color="rgb(38.911438%, 26.332092%, 18.112183%)" offset="0.125"/><stop stop-opacity="1" stop-color="rgb(38.725281%, 26.017761%, 17.999268%)" offset="0.1875"/><stop stop-opacity="1" stop-color="rgb(38.458252%, 25.831604%, 17.932129%)" offset="0.25"/><stop stop-opacity="1" stop-color="rgb(38.076782%, 25.576782%, 17.69104%)" offset="0.375"/><stop stop-opacity="1" stop-color="rgb(37.709045%, 25.244141%, 17.408752%)" offset="0.4375"/><stop stop-opacity="1" stop-color="rgb(37.413025%, 25.057983%, 17.298889%)" offset="0.5"/><stop stop-opacity="1" stop-color="rgb(37.265015%, 24.824524%, 17.26532%)" offset="0.5625"/><stop stop-opacity="1" stop-color="rgb(37.037659%, 24.465942%, 17.06543%)" offset="0.625"/><stop stop-opacity="1" stop-color="rgb(36.651611%, 24.279785%, 16.899109%)" offset="0.6875"/><stop stop-opacity="1" stop-color="rgb(36.279297%, 24.079895%, 16.88385%)" offset="0.75"/><stop stop-opacity="1" stop-color="rgb(36.09314%, 23.892212%, 16.68396%)" offset="0.8125"/><stop stop-opacity="1" stop-color="rgb(35.891724%, 23.692322%, 16.499329%)" offset="0.875"/><stop stop-opacity="1" stop-color="rgb(35.50415%, 23.498535%, 16.499329%)" offset="0.9375"/><stop stop-opacity="1" stop-color="rgb(35.305786%, 23.310852%, 16.311646%)" offset="1"/></linearGradient><clipPath id="e5fd3eb9f2"><path d="M 116 151.542969 L 167.699219 151.542969 L 167.699219 224.910156 L 116 224.910156 Z M 116 151.542969 " clip-rule="nonzero"/></clipPath><clipPath id="5c25c8402d"><path d="M 134.707031 198.308594 C 135.050781 196.207031 135.691406 194.113281 136.460938 192.140625 C 137.226562 190.167969 138.117188 188.320312 138.921875 186.578125 C 139.734375 184.835938 140.460938 183.195312 141.011719 181.59375 C 141.558594 179.992188 141.972656 178.421875 142.167969 176.832031 C 142.363281 175.242188 142.480469 173.648438 142.390625 172.082031 C 142.371094 171.6875 142.386719 171.300781 142.347656 170.917969 C 142.308594 170.53125 142.265625 170.152344 142.242188 169.773438 C 142.214844 169.015625 142.078125 168.285156 141.996094 167.570312 C 141.949219 167.210938 141.914062 166.859375 141.863281 166.515625 C 141.800781 166.171875 141.738281 165.835938 141.691406 165.503906 C 141.578125 164.84375 141.488281 164.207031 141.378906 163.617188 C 141.132812 162.441406 140.984375 161.386719 140.792969 160.496094 C 140.417969 158.730469 140.289062 157.679688 140.289062 157.679688 C 140.289062 157.679688 141.035156 158.425781 142.203125 159.808594 C 142.503906 160.140625 142.792969 160.550781 143.125 160.996094 C 143.457031 161.441406 143.792969 161.9375 144.164062 162.46875 C 144.359375 162.730469 144.523438 163.011719 144.695312 163.304688 C 144.871094 163.597656 145.050781 163.902344 145.238281 164.210938 C 145.425781 164.519531 145.605469 164.84375 145.792969 165.175781 C 145.96875 165.511719 146.136719 165.863281 146.3125 166.222656 C 146.664062 166.945312 147.023438 167.699219 147.324219 168.527344 C 147.488281 168.9375 147.636719 169.355469 147.792969 169.785156 C 147.945312 170.214844 148.054688 170.671875 148.191406 171.125 C 148.726562 172.945312 149.042969 174.996094 149.109375 177.152344 C 149.183594 179.316406 148.878906 181.59375 148.308594 183.765625 C 147.742188 185.941406 146.90625 188.003906 146.03125 189.886719 C 145.152344 191.773438 144.25 193.507812 143.464844 195.15625 C 142.6875 196.804688 141.996094 198.371094 141.484375 199.925781 C 140.984375 201.480469 140.597656 203.023438 140.355469 204.546875 C 140.28125 204.925781 140.257812 205.308594 140.207031 205.6875 C 140.167969 206.066406 140.101562 206.433594 140.082031 206.808594 C 140.054688 207.183594 140.03125 207.550781 140.003906 207.914062 C 139.976562 208.277344 139.957031 208.636719 139.957031 208.992188 C 139.945312 209.703125 139.914062 210.390625 139.925781 211.050781 C 139.9375 211.714844 139.964844 212.347656 139.96875 212.953125 C 140.027344 214.171875 140.082031 215.238281 140.125 216.113281 C 140.277344 217.882812 140.289062 218.957031 140.289062 218.957031 C 140.289062 218.957031 139.636719 218.140625 138.625 216.601562 C 138.371094 216.21875 138.140625 215.773438 137.867188 215.289062 C 137.597656 214.804688 137.304688 214.28125 137.03125 213.699219 C 136.757812 213.113281 136.496094 212.480469 136.207031 211.808594 C 136.050781 211.476562 135.953125 211.113281 135.824219 210.75 C 135.703125 210.382812 135.582031 210.007812 135.453125 209.625 C 135.3125 209.242188 135.226562 208.835938 135.132812 208.421875 C 135.035156 208.003906 134.9375 207.578125 134.835938 207.148438 C 134.722656 206.71875 134.695312 206.261719 134.621094 205.804688 C 134.570312 205.347656 134.484375 204.878906 134.453125 204.402344 C 134.308594 202.488281 134.367188 200.414062 134.707031 198.308594 Z M 116.101562 188.316406 C 116.101562 208.460938 127.585938 224.792969 141.75 224.792969 C 155.914062 224.792969 167.394531 208.460938 167.394531 188.316406 C 167.394531 168.171875 155.914062 151.84375 141.75 151.84375 C 127.585938 151.84375 116.101562 168.171875 116.101562 188.316406 Z M 116.101562 188.316406 " clip-rule="nonzero"/></clipPath><clipPath id="ed1abf208d"><path d="M 134.707031 198.308594 C 135.050781 196.207031 135.691406 194.113281 136.460938 192.140625 C 137.226562 190.167969 138.117188 188.320312 138.921875 186.578125 C 139.734375 184.835938 140.460938 183.195312 141.011719 181.59375 C 141.558594 179.992188 141.972656 178.421875 142.167969 176.832031 C 142.363281 175.242188 142.480469 173.648438 142.390625 172.082031 C 142.371094 171.6875 142.386719 171.300781 142.347656 170.917969 C 142.308594 170.53125 142.265625 170.152344 142.242188 169.773438 C 142.214844 169.015625 142.078125 168.285156 141.996094 167.570312 C 141.949219 167.210938 141.914062 166.859375 141.863281 166.515625 C 141.800781 166.171875 141.738281 165.835938 141.691406 165.503906 C 141.578125 164.84375 141.488281 164.207031 141.378906 163.617188 C 141.132812 162.441406 140.984375 161.386719 140.792969 160.496094 C 140.417969 158.730469 140.289062 157.679688 140.289062 157.679688 C 140.289062 157.679688 141.035156 158.425781 142.203125 159.808594 C 142.503906 160.140625 142.792969 160.550781 143.125 160.996094 C 143.457031 161.441406 143.792969 161.9375 144.164062 162.46875 C 144.359375 162.730469 144.523438 163.011719 144.695312 163.304688 C 144.871094 163.597656 145.050781 163.902344 145.238281 164.210938 C 145.425781 164.519531 145.605469 164.84375 145.792969 165.175781 C 145.96875 165.511719 146.136719 165.863281 146.3125 166.222656 C 146.664062 166.945312 147.023438 167.699219 147.324219 168.527344 C 147.488281 168.9375 147.636719 169.355469 147.792969 169.785156 C 147.945312 170.214844 148.054688 170.671875 148.191406 171.125 C 148.726562 172.945312 149.042969 174.996094 149.109375 177.152344 C 149.183594 179.316406 148.878906 181.59375 148.308594 183.765625 C 147.742188 185.941406 146.90625 188.003906 146.03125 189.886719 C 145.152344 191.773438 144.25 193.507812 143.464844 195.15625 C 142.6875 196.804688 141.996094 198.371094 141.484375 199.925781 C 140.984375 201.480469 140.597656 203.023438 140.355469 204.546875 C 140.28125 204.925781 140.257812 205.308594 140.207031 205.6875 C 140.167969 206.066406 140.101562 206.433594 140.082031 206.808594 C 140.054688 207.183594 140.03125 207.550781 140.003906 207.914062 C 139.976562 208.277344 139.957031 208.636719 139.957031 208.992188 C 139.945312 209.703125 139.914062 210.390625 139.925781 211.050781 C 139.9375 211.714844 139.964844 212.347656 139.96875 212.953125 C 140.027344 214.171875 140.082031 215.238281 140.125 216.113281 C 140.277344 217.882812 140.289062 218.957031 140.289062 218.957031 C 140.289062 218.957031 139.636719 218.140625 138.625 216.601562 C 138.371094 216.21875 138.140625 215.773438 137.867188 215.289062 C 137.597656 214.804688 137.304688 214.28125 137.03125 213.699219 C 136.757812 213.113281 136.496094 212.480469 136.207031 211.808594 C 136.050781 211.476562 135.953125 211.113281 135.824219 210.75 C 135.703125 210.382812 135.582031 210.007812 135.453125 209.625 C 135.3125 209.242188 135.226562 208.835938 135.132812 208.421875 C 135.035156 208.003906 134.9375 207.578125 134.835938 207.148438 C 134.722656 206.71875 134.695312 206.261719 134.621094 205.804688 C 134.570312 205.347656 134.484375 204.878906 134.453125 204.402344 C 134.308594 202.488281 134.367188 200.414062 134.707031 198.308594 Z M 116.101562 188.316406 C 116.101562 208.460938 127.585938 224.792969 141.75 224.792969 C 155.914062 224.792969 167.394531 208.460938 167.394531 188.316406 C 167.394531 168.171875 155.914062 151.84375 141.75 151.84375 C 127.585938 151.84375 116.101562 168.171875 116.101562 188.316406 " clip-rule="nonzero"/></clipPath><clipPath id="3db66ca263"><path d="M 115.054688 224.777344 L 116.113281 151.105469 L 168.445312 151.859375 L 167.386719 225.53125 Z M 115.054688 224.777344 " clip-rule="nonzero"/></clipPath><linearGradient x1="0.274595" gradientTransform="matrix(348.969812, 5.033503, 5.025152, -349.549762, 19.758759, 186.515626)" y1="0" x2="0.424551" gradientUnits="userSpaceOnUse" y2="0" id="4398f982db"><stop stop-opacity="1" stop-color="rgb(57.299805%, 41.999817%, 27.099609%)" offset="0"/><stop stop-opacity="1" stop-color="rgb(57.299805%, 41.815186%, 27.099609%)" offset="0.03125"/><stop stop-opacity="1" stop-color="rgb(57.119751%, 41.61377%, 27.099609%)" offset="0.0625"/><stop stop-opacity="1" stop-color="rgb(56.838989%, 41.519165%, 27.018738%)" offset="0.078125"/><stop stop-opacity="1" stop-color="rgb(56.639099%, 41.339111%, 26.838684%)" offset="0.09375"/><stop stop-opacity="1" stop-color="rgb(56.518555%, 41.136169%, 26.71814%)" offset="0.109375"/><stop stop-opacity="1" stop-color="rgb(56.498718%, 40.934753%, 26.699829%)" offset="0.125"/><stop stop-opacity="1" stop-color="rgb(56.314087%, 40.815735%, 26.699829%)" offset="0.15625"/><stop stop-opacity="1" stop-color="rgb(55.935669%, 40.618896%, 26.519775%)" offset="0.1875"/><stop stop-opacity="1" stop-color="rgb(55.718994%, 40.419006%, 26.318359%)" offset="0.21875"/><stop stop-opacity="1" stop-color="rgb(55.516052%, 40.216064%, 26.298523%)" offset="0.25"/><stop stop-opacity="1" stop-color="rgb(55.233765%, 39.933777%, 26.216125%)" offset="0.265625"/><stop stop-opacity="1" stop-color="rgb(55.032349%, 39.732361%, 26.03302%)" offset="0.28125"/><stop stop-opacity="1" stop-color="rgb(54.736328%, 39.614868%, 25.915527%)" offset="0.3125"/><stop stop-opacity="1" stop-color="rgb(54.519653%, 39.41803%, 25.898743%)" offset="0.34375"/><stop stop-opacity="1" stop-color="rgb(54.316711%, 39.21814%, 25.717163%)" offset="0.375"/><stop stop-opacity="1" stop-color="rgb(54.034424%, 39.115906%, 25.517273%)" offset="0.390625"/><stop stop-opacity="1" stop-color="rgb(53.833008%, 38.9328%, 25.498962%)" offset="0.40625"/><stop stop-opacity="1" stop-color="rgb(53.715515%, 38.63678%, 25.498962%)" offset="0.4375"/><stop stop-opacity="1" stop-color="rgb(53.518677%, 38.420105%, 25.318909%)" offset="0.46875"/><stop stop-opacity="1" stop-color="rgb(53.237915%, 38.317871%, 25.119019%)" offset="0.484375"/><stop stop-opacity="1" stop-color="rgb(53.036499%, 38.136292%, 25.099182%)" offset="0.5"/><stop stop-opacity="1" stop-color="rgb(52.91748%, 38.017273%, 25.099182%)" offset="0.53125"/><stop stop-opacity="1" stop-color="rgb(52.719116%, 37.820435%, 24.919128%)" offset="0.5625"/><stop stop-opacity="1" stop-color="rgb(52.384949%, 37.484741%, 24.719238%)" offset="0.59375"/><stop stop-opacity="1" stop-color="rgb(52.133179%, 37.313843%, 24.699402%)" offset="0.609375"/><stop stop-opacity="1" stop-color="rgb(51.937866%, 37.298584%, 24.699402%)" offset="0.625"/><stop stop-opacity="1" stop-color="rgb(51.817322%, 37.115479%, 24.516296%)" offset="0.65625"/><stop stop-opacity="1" stop-color="rgb(51.620483%, 36.915588%, 24.316406%)" offset="0.6875"/><stop stop-opacity="1" stop-color="rgb(51.341248%, 36.819458%, 24.299622%)" offset="0.703125"/><stop stop-opacity="1" stop-color="rgb(51.141357%, 36.64093%, 24.299622%)" offset="0.71875"/><stop stop-opacity="1" stop-color="rgb(51.019287%, 36.439514%, 24.21875%)" offset="0.734375"/><stop stop-opacity="1" stop-color="rgb(50.999451%, 36.238098%, 24.03717%)" offset="0.75"/><stop stop-opacity="1" stop-color="rgb(50.816345%, 36.117554%, 23.918152%)" offset="0.78125"/><stop stop-opacity="1" stop-color="rgb(50.437927%, 35.920715%, 23.899841%)" offset="0.8125"/><stop stop-opacity="1" stop-color="rgb(50.221252%, 35.720825%, 23.719788%)" offset="0.84375"/><stop stop-opacity="1" stop-color="rgb(50.018311%, 35.517883%, 23.519897%)" offset="0.875"/><stop stop-opacity="1" stop-color="rgb(49.736023%, 35.317993%, 23.498535%)" offset="0.890625"/><stop stop-opacity="1" stop-color="rgb(49.534607%, 35.299683%, 23.498535%)" offset="0.90625"/><stop stop-opacity="1" stop-color="rgb(49.415588%, 35.121155%, 23.320007%)" offset="0.9375"/><stop stop-opacity="1" stop-color="rgb(49.320984%, 34.841919%, 23.120117%)" offset="0.953125"/><stop stop-opacity="1" stop-color="rgb(49.142456%, 34.642029%, 23.098755%)" offset="0.96875"/><stop stop-opacity="1" stop-color="rgb(48.939514%, 34.519958%, 23.098755%)" offset="0.984375"/><stop stop-opacity="1" stop-color="rgb(48.738098%, 34.498596%, 23.098755%)" offset="1"/></linearGradient><clipPath id="3657a45a02"><path d="M 51.367188 151.066406 L 76.742188 151.066406 L 76.742188 223.472656 L 51.367188 223.472656 Z M 51.367188 151.066406 " clip-rule="nonzero"/></clipPath><clipPath id="8b00554ab0"><path d="M 51.667969 219.953125 C 51.847656 218.433594 52.023438 216.714844 52.195312 214.84375 C 52.273438 213.90625 52.355469 212.929688 52.441406 211.917969 C 52.523438 210.910156 52.585938 209.863281 52.667969 208.792969 C 52.804688 206.644531 52.933594 204.378906 53.03125 202.039062 C 53.089844 200.867188 53.121094 199.675781 53.160156 198.472656 C 53.179688 197.871094 53.199219 197.265625 53.21875 196.652344 C 53.234375 196.046875 53.242188 195.433594 53.253906 194.820312 C 53.3125 192.359375 53.335938 189.863281 53.335938 187.363281 C 53.335938 184.863281 53.304688 182.367188 53.25 179.910156 C 53.234375 178.679688 53.199219 177.460938 53.15625 176.253906 C 53.117188 175.050781 53.082031 173.859375 53.023438 172.6875 C 52.925781 170.347656 52.796875 168.082031 52.65625 165.9375 C 52.515625 163.789062 52.355469 161.761719 52.1875 159.886719 C 52.015625 158.011719 51.839844 156.296875 51.664062 154.773438 C 51.660156 154.757812 51.660156 154.742188 51.660156 154.726562 C 51.417969 152.644531 53.347656 150.976562 55.371094 151.515625 C 67.265625 154.683594 76.265625 169.527344 76.265625 187.363281 C 76.265625 205.195312 67.269531 220.035156 55.382812 223.210938 C 53.355469 223.75 51.421875 222.085938 51.664062 220 Z M 51.667969 219.953125 " clip-rule="nonzero"/></clipPath><clipPath id="0d5eb647b5"><path d="M 51.667969 219.953125 C 51.847656 218.433594 52.023438 216.714844 52.195312 214.84375 C 52.273438 213.90625 52.355469 212.929688 52.441406 211.917969 C 52.523438 210.910156 52.585938 209.863281 52.667969 208.792969 C 52.804688 206.644531 52.933594 204.378906 53.03125 202.039062 C 53.089844 200.867188 53.121094 199.675781 53.160156 198.472656 C 53.179688 197.871094 53.199219 197.265625 53.21875 196.652344 C 53.234375 196.046875 53.242188 195.433594 53.253906 194.820312 C 53.3125 192.359375 53.335938 189.863281 53.335938 187.363281 C 53.335938 184.863281 53.304688 182.367188 53.25 179.910156 C 53.234375 178.679688 53.199219 177.460938 53.15625 176.253906 C 53.117188 175.050781 53.082031 173.859375 53.023438 172.6875 C 52.925781 170.347656 52.796875 168.082031 52.65625 165.9375 C 52.515625 163.789062 52.355469 161.761719 52.1875 159.886719 C 52.015625 158.011719 51.839844 156.296875 51.664062 154.773438 C 51.660156 154.757812 51.660156 154.742188 51.660156 154.726562 C 51.417969 152.644531 53.347656 150.976562 55.371094 151.515625 C 67.265625 154.683594 76.265625 169.527344 76.265625 187.363281 C 76.265625 205.195312 67.269531 220.035156 55.382812 223.210938 C 53.355469 223.75 51.421875 222.085938 51.664062 220 L 51.667969 219.953125 " clip-rule="nonzero"/></clipPath><clipPath id="0c29454897"><path d="M 50.371094 223.734375 L 51.421875 150.617188 L 77.3125 150.992188 L 76.261719 224.109375 Z M 50.371094 223.734375 " clip-rule="nonzero"/></clipPath><linearGradient x1="0.0892364" gradientTransform="matrix(348.969812, 5.033503, 5.025152, -349.549762, 19.755829, 186.817626)" y1="0" x2="0.163409" gradientUnits="userSpaceOnUse" y2="0" id="c9d6cb4073"><stop stop-opacity="1" stop-color="rgb(68.978882%, 52.198792%, 32.879639%)" offset="0"/><stop stop-opacity="1" stop-color="rgb(68.788147%, 52.189636%, 32.688904%)" offset="0.0625"/><stop stop-opacity="1" stop-color="rgb(68.598938%, 52.079773%, 32.499695%)" offset="0.09375"/><stop stop-opacity="1" stop-color="rgb(68.588257%, 51.878357%, 32.499695%)" offset="0.125"/><stop stop-opacity="1" stop-color="rgb(68.476868%, 51.676941%, 32.499695%)" offset="0.15625"/><stop stop-opacity="1" stop-color="rgb(68.278503%, 51.487732%, 32.492065%)" offset="0.1875"/><stop stop-opacity="1" stop-color="rgb(68.077087%, 51.399231%, 32.408142%)" offset="0.21875"/><stop stop-opacity="1" stop-color="rgb(67.878723%, 51.387024%, 32.264709%)" offset="0.25"/><stop stop-opacity="1" stop-color="rgb(67.706299%, 51.275635%, 32.199097%)" offset="0.28125"/><stop stop-opacity="1" stop-color="rgb(67.553711%, 51.075745%, 32.199097%)" offset="0.3125"/><stop stop-opacity="1" stop-color="rgb(67.375183%, 50.875854%, 32.199097%)" offset="0.34375"/><stop stop-opacity="1" stop-color="rgb(67.185974%, 50.674438%, 32.185364%)" offset="0.375"/><stop stop-opacity="1" stop-color="rgb(67.086792%, 50.386047%, 31.985474%)" offset="0.4375"/><stop stop-opacity="1" stop-color="rgb(66.973877%, 50.19989%, 31.799316%)" offset="0.46875"/><stop stop-opacity="1" stop-color="rgb(66.772461%, 50.184631%, 31.799316%)" offset="0.5"/><stop stop-opacity="1" stop-color="rgb(66.572571%, 50.071716%, 31.799316%)" offset="0.53125"/><stop stop-opacity="1" stop-color="rgb(66.372681%, 49.871826%, 31.785583%)" offset="0.5625"/><stop stop-opacity="1" stop-color="rgb(66.085815%, 49.584961%, 31.585693%)" offset="0.625"/><stop stop-opacity="1" stop-color="rgb(65.885925%, 49.385071%, 31.385803%)" offset="0.6875"/><stop stop-opacity="1" stop-color="rgb(65.769958%, 49.27063%, 31.269836%)" offset="0.71875"/><stop stop-opacity="1" stop-color="rgb(65.568542%, 49.069214%, 31.083679%)" offset="0.75"/><stop stop-opacity="1" stop-color="rgb(65.368652%, 48.867798%, 30.999756%)" offset="0.78125"/><stop stop-opacity="1" stop-color="rgb(65.168762%, 48.683167%, 30.999756%)" offset="0.8125"/><stop stop-opacity="1" stop-color="rgb(64.883423%, 48.582458%, 30.982971%)" offset="0.875"/><stop stop-opacity="1" stop-color="rgb(64.698792%, 48.466492%, 30.867004%)" offset="0.90625"/><stop stop-opacity="1" stop-color="rgb(64.683533%, 48.266602%, 30.683899%)" offset="0.9375"/><stop stop-opacity="1" stop-color="rgb(64.483643%, 47.982788%, 30.599976%)" offset="1"/></linearGradient><clipPath id="0822b80c00"><path d="M 24.972656 151.066406 L 49.933594 151.066406 L 49.933594 223.472656 L 24.972656 223.472656 Z M 24.972656 151.066406 " clip-rule="nonzero"/></clipPath><clipPath id="9ff2510fde"><path d="M 45.867188 151.515625 C 47.890625 150.976562 49.820312 152.644531 49.582031 154.726562 C 49.578125 154.742188 49.578125 154.757812 49.574219 154.773438 C 49.398438 156.296875 49.222656 158.011719 49.050781 159.886719 C 48.886719 161.761719 48.722656 163.789062 48.582031 165.9375 C 48.445312 168.082031 48.3125 170.347656 48.21875 172.6875 C 48.160156 173.859375 48.121094 175.050781 48.085938 176.253906 C 48.042969 177.460938 48.007812 178.679688 47.988281 179.910156 C 47.933594 182.367188 47.902344 184.863281 47.902344 187.363281 C 47.902344 189.863281 47.925781 192.359375 47.984375 194.820312 C 47.996094 195.433594 48.007812 196.046875 48.019531 196.652344 C 48.039062 197.265625 48.058594 197.871094 48.078125 198.472656 C 48.117188 199.675781 48.148438 200.867188 48.210938 202.039062 C 48.308594 204.378906 48.4375 206.644531 48.574219 208.792969 C 48.652344 209.863281 48.71875 210.910156 48.800781 211.917969 C 48.882812 212.929688 48.964844 213.90625 49.042969 214.84375 C 49.21875 216.714844 49.394531 218.433594 49.570312 219.953125 L 49.574219 220 C 49.816406 222.085938 47.882812 223.75 45.859375 223.210938 C 33.96875 220.035156 24.972656 205.195312 24.972656 187.363281 C 24.972656 169.527344 33.972656 154.683594 45.867188 151.515625 Z M 45.867188 151.515625 " clip-rule="nonzero"/></clipPath><clipPath id="2083eb53fa"><path d="M 45.867188 151.515625 C 47.890625 150.976562 49.820312 152.644531 49.582031 154.726562 C 49.578125 154.742188 49.578125 154.757812 49.574219 154.773438 C 49.398438 156.296875 49.222656 158.011719 49.050781 159.886719 C 48.886719 161.761719 48.722656 163.789062 48.582031 165.9375 C 48.445312 168.082031 48.3125 170.347656 48.21875 172.6875 C 48.160156 173.859375 48.121094 175.050781 48.085938 176.253906 C 48.042969 177.460938 48.007812 178.679688 47.988281 179.910156 C 47.933594 182.367188 47.902344 184.863281 47.902344 187.363281 C 47.902344 189.863281 47.925781 192.359375 47.984375 194.820312 C 47.996094 195.433594 48.007812 196.046875 48.019531 196.652344 C 48.039062 197.265625 48.058594 197.871094 48.078125 198.472656 C 48.117188 199.675781 48.148438 200.867188 48.210938 202.039062 C 48.308594 204.378906 48.4375 206.644531 48.574219 208.792969 C 48.652344 209.863281 48.71875 210.910156 48.800781 211.917969 C 48.882812 212.929688 48.964844 213.90625 49.042969 214.84375 C 49.21875 216.714844 49.394531 218.433594 49.570312 219.953125 L 49.574219 220 C 49.816406 222.085938 47.882812 223.75 45.859375 223.210938 C 33.96875 220.035156 24.972656 205.195312 24.972656 187.363281 C 24.972656 169.527344 33.972656 154.683594 45.867188 151.515625 " clip-rule="nonzero"/></clipPath><clipPath id="f12527fa4d"><path d="M 23.925781 223.734375 L 24.980469 150.617188 L 50.871094 150.992188 L 49.816406 224.109375 Z M 23.925781 223.734375 " clip-rule="nonzero"/></clipPath><linearGradient x1="0.0134891" gradientTransform="matrix(348.969812, 5.033503, 5.025152, -349.549762, 19.750084, 186.928266)" y1="0" x2="0.0876606" gradientUnits="userSpaceOnUse" y2="0" id="17a7cc2625"><stop stop-opacity="1" stop-color="rgb(74.058533%, 56.8573%, 35.299683%)" offset="0"/><stop stop-opacity="1" stop-color="rgb(73.959351%, 56.759644%, 35.299683%)" offset="0.03125"/><stop stop-opacity="1" stop-color="rgb(73.762512%, 56.57959%, 35.281372%)" offset="0.0625"/><stop stop-opacity="1" stop-color="rgb(73.48175%, 56.481934%, 35.081482%)" offset="0.125"/><stop stop-opacity="1" stop-color="rgb(73.298645%, 56.367493%, 34.899902%)" offset="0.15625"/><stop stop-opacity="1" stop-color="rgb(73.286438%, 56.170654%, 34.899902%)" offset="0.1875"/><stop stop-opacity="1" stop-color="rgb(73.173523%, 55.973816%, 34.899902%)" offset="0.21875"/><stop stop-opacity="1" stop-color="rgb(72.975159%, 55.773926%, 34.887695%)" offset="0.25"/><stop stop-opacity="1" stop-color="rgb(72.680664%, 55.487061%, 34.686279%)" offset="0.3125"/><stop stop-opacity="1" stop-color="rgb(72.335815%, 55.291748%, 34.490967%)" offset="0.375"/><stop stop-opacity="1" stop-color="rgb(72.085571%, 55.184937%, 34.385681%)" offset="0.40625"/><stop stop-opacity="1" stop-color="rgb(71.893311%, 54.989624%, 34.19342%)" offset="0.4375"/><stop stop-opacity="1" stop-color="rgb(71.798706%, 54.79126%, 34.098816%)" offset="0.46875"/><stop stop-opacity="1" stop-color="rgb(71.795654%, 54.595947%, 34.098816%)" offset="0.5"/><stop stop-opacity="1" stop-color="rgb(71.694946%, 54.499817%, 34.098816%)" offset="0.53125"/><stop stop-opacity="1" stop-color="rgb(71.498108%, 54.499817%, 34.098816%)" offset="0.5625"/><stop stop-opacity="1" stop-color="rgb(71.299744%, 54.400635%, 33.999634%)" offset="0.59375"/><stop stop-opacity="1" stop-color="rgb(71.101379%, 54.200745%, 33.80127%)" offset="0.625"/><stop stop-opacity="1" stop-color="rgb(70.903015%, 54.00238%, 33.700562%)" offset="0.65625"/><stop stop-opacity="1" stop-color="rgb(70.706177%, 53.807068%, 33.699036%)" offset="0.6875"/><stop stop-opacity="1" stop-color="rgb(70.509338%, 53.608704%, 33.604431%)" offset="0.71875"/><stop stop-opacity="1" stop-color="rgb(70.309448%, 53.410339%, 33.409119%)" offset="0.75"/><stop stop-opacity="1" stop-color="rgb(70.204163%, 53.305054%, 33.303833%)" offset="0.8125"/><stop stop-opacity="1" stop-color="rgb(70.00885%, 53.108215%, 33.299255%)" offset="0.875"/><stop stop-opacity="1" stop-color="rgb(69.720459%, 52.82135%, 33.210754%)" offset="0.90625"/><stop stop-opacity="1" stop-color="rgb(69.525146%, 52.624512%, 33.024597%)" offset="0.9375"/><stop stop-opacity="1" stop-color="rgb(69.326782%, 52.513123%, 32.913208%)" offset="0.96875"/><stop stop-opacity="1" stop-color="rgb(69.126892%, 52.49939%, 32.899475%)" offset="1"/></linearGradient></defs><g clip-path="url(#1e43fae2d8)"><g clip-path="url(#13dae4f1e1)"><g clip-path="url(#9b5162bdd8)"><g clip-path="url(#e9238016d3)"><path fill="url(#78f9ef7f4b)" d="M 297.332031 225.207031 L 298.394531 151.285156 L 350.730469 152.039062 L 349.664062 225.960938 Z M 297.332031 225.207031 " fill-rule="nonzero"/></g></g></g></g><g clip-path="url(#f58426abff)"><g clip-path="url(#1c0baaa214)"><g clip-path="url(#62a7755846)"><g clip-path="url(#f7768aa3e7)"><path fill="url(#23b1bb1651)" d="M 205.914062 226.140625 L 206.957031 153.550781 L 235.121094 153.957031 L 234.078125 226.546875 Z M 205.914062 226.140625 " fill-rule="nonzero"/></g></g></g></g><g clip-path="url(#9bb2c58892)"><g clip-path="url(#a9b0686c60)"><g clip-path="url(#db8d2c6f44)"><g clip-path="url(#6cae788d79)"><path fill="url(#8ff71edcf8)" d="M 228.867188 222.976562 L 229.9375 148.492188 L 259.625 148.921875 L 258.554688 223.40625 Z M 228.867188 222.976562 " fill-rule="nonzero"/></g></g></g></g><g clip-path="url(#e5fd3eb9f2)"><g clip-path="url(#5c25c8402d)"><g clip-path="url(#ed1abf208d)"><g clip-path="url(#3db66ca263)"><path fill="url(#4398f982db)" d="M 115.054688 224.777344 L 116.113281 151.105469 L 168.441406 151.859375 L 167.382812 225.53125 Z M 115.054688 224.777344 " fill-rule="nonzero"/></g></g></g></g><g clip-path="url(#3657a45a02)"><g clip-path="url(#8b00554ab0)"><g clip-path="url(#0d5eb647b5)"><g clip-path="url(#0c29454897)"><path fill="url(#c9d6cb4073)" d="M 50.375 223.457031 L 51.421875 150.707031 L 77.304688 151.078125 L 76.261719 223.828125 Z M 50.375 223.457031 " fill-rule="nonzero"/></g></g></g></g><g clip-path="url(#0822b80c00)"><g clip-path="url(#9ff2510fde)"><g clip-path="url(#2083eb53fa)"><g clip-path="url(#f12527fa4d)"><path fill="url(#17a7cc2625)" d="M 23.933594 223.457031 L 24.980469 150.707031 L 50.863281 151.078125 L 49.816406 223.828125 Z M 23.933594 223.457031 " fill-rule="nonzero"/></g></g></g></g><g fill="#f0ecec" fill-opacity="1"><g transform="translate(35.007014, 134.23969)"><g><path d="M 24.53125 -12.4375 C 24.601562 -15.332031 23.789062 -17.722656 22.09375 -19.609375 C 21.644531 -20.140625 21.421875 -20.570312 21.421875 -20.90625 C 21.421875 -21.25 21.609375 -21.679688 21.984375 -22.203125 C 22.847656 -23.335938 23.429688 -24.628906 23.734375 -26.078125 C 24.035156 -27.535156 24.101562 -28.988281 23.9375 -30.4375 C 23.769531 -31.882812 23.390625 -33.238281 22.796875 -34.5 C 22.210938 -35.757812 21.472656 -36.785156 20.578125 -37.578125 C 18.765625 -39.085938 16.554688 -39.820312 13.953125 -39.78125 C 13.503906 -39.75 12.988281 -39.734375 12.40625 -39.734375 C 11.820312 -39.734375 11.15625 -39.734375 10.40625 -39.734375 C 8.25 -39.765625 6.765625 -39.78125 5.953125 -39.78125 C 5.148438 -39.78125 4.597656 -39.628906 4.296875 -39.328125 C 4.066406 -39.109375 3.953125 -38.300781 3.953125 -36.90625 L 3.953125 -21.984375 L 1.703125 -20.6875 C 1.398438 -20.5 1.25 -20.21875 1.25 -19.84375 C 1.25 -19.5 1.398438 -19.234375 1.703125 -19.046875 L 3.953125 -17.75 L 3.953125 -3.609375 C 3.953125 -2.671875 3.96875 -1.96875 4 -1.5 C 4.039062 -1.03125 4.160156 -0.679688 4.359375 -0.453125 C 4.648438 -0.148438 5.097656 0 5.703125 0 C 8.378906 0.0390625 10.601562 0.0664062 12.375 0.078125 C 14.144531 0.0976562 15.613281 0.0234375 16.78125 -0.140625 C 17.945312 -0.304688 18.945312 -0.625 19.78125 -1.09375 C 20.613281 -1.570312 21.441406 -2.300781 22.265625 -3.28125 C 23.773438 -5.082031 24.507812 -7.097656 24.46875 -9.328125 C 24.46875 -9.960938 24.46875 -10.546875 24.46875 -11.078125 C 24.46875 -11.609375 24.488281 -12.0625 24.53125 -12.4375 Z M 11.1875 -31.25 C 11.300781 -31.96875 11.546875 -32.457031 11.921875 -32.71875 C 12.296875 -32.988281 12.84375 -33.082031 13.5625 -33 C 14.3125 -32.96875 14.953125 -32.757812 15.484375 -32.375 C 16.015625 -32 16.351562 -31.4375 16.5 -30.6875 C 16.6875 -29.96875 16.78125 -29.15625 16.78125 -28.25 C 16.78125 -27.351562 16.519531 -26.429688 16 -25.484375 C 15.65625 -24.921875 15.125 -24.523438 14.40625 -24.296875 C 13.425781 -23.960938 12.679688 -24 12.171875 -24.40625 C 11.671875 -24.820312 11.332031 -25.4375 11.15625 -26.25 C 10.988281 -27.0625 10.921875 -27.925781 10.953125 -28.84375 C 10.992188 -29.769531 11.070312 -30.570312 11.1875 -31.25 Z M 13.5 -31.984375 C 14.332031 -31.910156 14.898438 -31.59375 15.203125 -31.03125 C 14.972656 -30.957031 14.660156 -30.84375 14.265625 -30.6875 C 13.867188 -30.539062 13.671875 -29.992188 13.671875 -29.046875 C 13.671875 -28.140625 13.660156 -27.382812 13.640625 -26.78125 C 13.628906 -26.1875 13.640625 -25.644531 13.671875 -25.15625 C 12.878906 -25.070312 12.351562 -25.5 12.09375 -26.4375 C 11.832031 -27.382812 11.8125 -28.726562 12.03125 -30.46875 C 12.113281 -31.21875 12.253906 -31.664062 12.453125 -31.8125 C 12.660156 -31.96875 13.007812 -32.023438 13.5 -31.984375 Z M 22.78125 -21.59375 C 23.644531 -22.6875 24.253906 -23.945312 24.609375 -25.375 C 24.972656 -26.800781 25.113281 -28.234375 25.03125 -29.671875 C 25 -30.273438 24.984375 -30.578125 24.984375 -30.578125 C 25.203125 -30.648438 25.367188 -30.382812 25.484375 -29.78125 C 25.859375 -28.164062 25.921875 -26.488281 25.671875 -24.75 C 25.429688 -23.019531 24.878906 -21.570312 24.015625 -20.40625 C 23.796875 -20.132812 23.65625 -19.960938 23.59375 -19.890625 C 23.539062 -19.816406 23.472656 -19.742188 23.390625 -19.671875 L 22.828125 -20.296875 C 22.523438 -20.671875 22.382812 -20.894531 22.40625 -20.96875 C 22.425781 -21.039062 22.550781 -21.25 22.78125 -21.59375 Z M 16.453125 -8.53125 C 15.765625 -7.320312 14.554688 -6.738281 12.828125 -6.78125 C 12.191406 -6.820312 11.75 -6.984375 11.5 -7.265625 C 11.257812 -7.546875 11.140625 -8.039062 11.140625 -8.75 C 11.140625 -9.46875 11.140625 -10.523438 11.140625 -11.921875 C 11.140625 -13.203125 11.140625 -14.179688 11.140625 -14.859375 C 11.140625 -15.535156 11.234375 -16.039062 11.421875 -16.375 C 11.609375 -16.71875 11.945312 -17.023438 12.4375 -17.296875 C 13.226562 -17.671875 14.082031 -17.59375 15 -17.0625 C 15.925781 -16.539062 16.539062 -15.847656 16.84375 -14.984375 C 17.664062 -12.753906 17.535156 -10.601562 16.453125 -8.53125 Z M 12.890625 -16.390625 C 13.222656 -16.578125 13.625 -16.601562 14.09375 -16.46875 C 14.570312 -16.34375 14.90625 -16.109375 15.09375 -15.765625 C 14.820312 -15.691406 14.519531 -15.429688 14.1875 -14.984375 C 13.957031 -14.640625 13.84375 -14.015625 13.84375 -13.109375 L 13.84375 -7.859375 C 13.695312 -7.816406 13.546875 -7.796875 13.390625 -7.796875 C 13.242188 -7.796875 13.078125 -7.796875 12.890625 -7.796875 C 12.585938 -7.835938 12.378906 -7.90625 12.265625 -8 C 12.148438 -8.09375 12.101562 -8.421875 12.125 -8.984375 C 12.144531 -9.546875 12.15625 -10.523438 12.15625 -11.921875 C 12.15625 -13.316406 12.160156 -14.296875 12.171875 -14.859375 C 12.191406 -15.429688 12.25 -15.789062 12.34375 -15.9375 C 12.4375 -16.082031 12.617188 -16.234375 12.890625 -16.390625 Z M 25.15625 -15.421875 C 25.113281 -15.535156 25.164062 -15.570312 25.3125 -15.53125 C 25.46875 -15.5 25.640625 -15.316406 25.828125 -14.984375 C 26.015625 -14.597656 26.179688 -14.066406 26.328125 -13.390625 C 26.484375 -12.710938 26.5625 -11.941406 26.5625 -11.078125 C 26.5625 -10.585938 26.585938 -9.957031 26.640625 -9.1875 C 26.703125 -8.414062 26.734375 -7.707031 26.734375 -7.0625 C 26.765625 -5.9375 26.515625 -4.890625 25.984375 -3.921875 C 25.460938 -2.960938 24.921875 -2.144531 24.359375 -1.46875 C 23.453125 -0.375 22.566406 0.460938 21.703125 1.046875 C 20.835938 1.628906 19.835938 2.039062 18.703125 2.28125 C 17.578125 2.53125 16.132812 2.671875 14.375 2.703125 C 12.625 2.742188 10.414062 2.765625 7.75 2.765625 C 6.5 2.765625 5.816406 2.179688 5.703125 1.015625 C 8.378906 1.054688 10.617188 1.082031 12.421875 1.09375 C 14.234375 1.113281 15.757812 1.039062 17 0.875 C 18.25 0.707031 19.34375 0.363281 20.28125 -0.15625 C 21.226562 -0.6875 22.15625 -1.5 23.0625 -2.59375 C 24.757812 -4.59375 25.566406 -6.835938 25.484375 -9.328125 C 25.484375 -9.960938 25.484375 -10.546875 25.484375 -11.078125 C 25.484375 -11.609375 25.503906 -12.039062 25.546875 -12.375 C 25.546875 -12.789062 25.5 -13.335938 25.40625 -14.015625 C 25.3125 -14.691406 25.226562 -15.160156 25.15625 -15.421875 Z M 25.15625 -15.421875 "/></g></g></g><g fill="#f0ecec" fill-opacity="1"><g transform="translate(131.232637, 134.23969)"><g><path d="M 20.515625 -5.484375 C 20.441406 -6.117188 20.140625 -6.460938 19.609375 -6.515625 C 19.078125 -6.578125 18.378906 -6.628906 17.515625 -6.671875 L 11.984375 -6.671875 C 11.035156 -6.703125 10.398438 -6.890625 10.078125 -7.234375 C 9.765625 -7.578125 9.570312 -8.195312 9.5 -9.09375 C 9.457031 -9.96875 9.445312 -10.789062 9.46875 -11.5625 C 9.488281 -12.332031 9.515625 -13.054688 9.546875 -13.734375 C 9.628906 -14.941406 9.859375 -15.695312 10.234375 -16 C 10.609375 -16.300781 11.320312 -16.453125 12.375 -16.453125 C 13.207031 -16.453125 13.941406 -16.453125 14.578125 -16.453125 C 15.222656 -16.453125 15.75 -16.46875 16.15625 -16.5 C 16.988281 -16.570312 17.40625 -16.988281 17.40625 -17.75 C 17.476562 -18.351562 17.515625 -18.945312 17.515625 -19.53125 C 17.515625 -20.113281 17.5 -20.707031 17.46875 -21.3125 C 17.425781 -21.988281 17.289062 -22.445312 17.0625 -22.6875 C 16.84375 -22.9375 16.394531 -23.0625 15.71875 -23.0625 C 15.519531 -23.09375 15.25 -23.109375 14.90625 -23.109375 C 14.570312 -23.109375 14.179688 -23.109375 13.734375 -23.109375 C 12.867188 -23.109375 12.125 -23.128906 11.5 -23.171875 C 10.875 -23.210938 10.394531 -23.382812 10.0625 -23.6875 C 9.71875 -24.09375 9.546875 -24.632812 9.546875 -25.3125 C 9.515625 -26.21875 9.488281 -27.140625 9.46875 -28.078125 C 9.445312 -29.023438 9.457031 -29.972656 9.5 -30.921875 C 9.570312 -31.785156 9.765625 -32.382812 10.078125 -32.71875 C 10.398438 -33.0625 11.035156 -33.25 11.984375 -33.28125 L 17.578125 -33.28125 C 18.398438 -33.28125 19.082031 -33.316406 19.625 -33.390625 C 20.175781 -33.472656 20.472656 -33.851562 20.515625 -34.53125 C 20.554688 -34.976562 20.582031 -35.53125 20.59375 -36.1875 C 20.613281 -36.851562 20.59375 -37.476562 20.53125 -38.0625 C 20.476562 -38.644531 20.359375 -39.015625 20.171875 -39.171875 C 19.835938 -39.429688 19.066406 -39.5625 17.859375 -39.5625 L 5.65625 -39.5625 C 4.75 -39.5625 4.097656 -39.515625 3.703125 -39.421875 C 3.304688 -39.328125 3.0625 -39.070312 2.96875 -38.65625 C 2.875 -38.238281 2.828125 -37.5625 2.828125 -36.625 L 2.828125 -3.734375 C 2.828125 -2.671875 2.832031 -1.914062 2.84375 -1.46875 C 2.863281 -1.019531 3.007812 -0.679688 3.28125 -0.453125 C 3.539062 -0.222656 3.882812 -0.0859375 4.3125 -0.046875 C 4.75 -0.015625 5.15625 0 5.53125 0 L 17.796875 0 C 18.398438 0 18.984375 -0.0351562 19.546875 -0.109375 C 20.117188 -0.179688 20.421875 -0.5625 20.453125 -1.25 C 20.535156 -1.925781 20.582031 -2.617188 20.59375 -3.328125 C 20.613281 -4.046875 20.585938 -4.765625 20.515625 -5.484375 Z M 21.640625 -36.671875 C 21.984375 -36.640625 22.21875 -36.59375 22.34375 -36.53125 C 22.476562 -36.476562 22.601562 -36.414062 22.71875 -36.34375 C 22.976562 -36.070312 23.109375 -35.53125 23.109375 -34.71875 C 23.109375 -33.914062 23.070312 -33.191406 23 -32.546875 C 22.96875 -31.753906 22.65625 -31.207031 22.0625 -30.90625 C 21.476562 -30.613281 20.695312 -30.46875 19.71875 -30.46875 L 14.234375 -30.46875 C 13.296875 -30.46875 12.757812 -30.367188 12.625 -30.171875 C 12.5 -29.984375 12.398438 -29.457031 12.328125 -28.59375 C 12.242188 -27.09375 12.242188 -25.601562 12.328125 -24.125 C 11.609375 -24.164062 11.144531 -24.234375 10.9375 -24.328125 C 10.726562 -24.421875 10.601562 -24.769531 10.5625 -25.375 C 10.53125 -27.257812 10.53125 -29.085938 10.5625 -30.859375 C 10.601562 -31.492188 10.695312 -31.878906 10.84375 -32.015625 C 11 -32.148438 11.378906 -32.234375 11.984375 -32.265625 L 17.578125 -32.265625 C 18.816406 -32.265625 19.796875 -32.332031 20.515625 -32.46875 C 21.234375 -32.601562 21.609375 -33.269531 21.640625 -34.46875 Z M 18.421875 -17.6875 C 18.460938 -18.101562 18.488281 -18.515625 18.5 -18.921875 C 18.519531 -19.335938 18.53125 -19.773438 18.53125 -20.234375 C 19.207031 -20.234375 19.617188 -20.109375 19.765625 -19.859375 C 19.921875 -19.617188 20.019531 -19.160156 20.0625 -18.484375 C 20.101562 -17.878906 20.125 -17.300781 20.125 -16.75 C 20.125 -16.207031 20.082031 -15.617188 20 -14.984375 C 19.96875 -14.597656 19.78125 -14.28125 19.4375 -14.03125 C 19.101562 -13.789062 18.726562 -13.65625 18.3125 -13.625 C 17.894531 -13.582031 17.363281 -13.570312 16.71875 -13.59375 C 16.082031 -13.613281 15.351562 -13.625 14.53125 -13.625 C 13.8125 -13.625 13.300781 -13.613281 13 -13.59375 C 12.695312 -13.570312 12.507812 -13.425781 12.4375 -13.15625 C 12.363281 -12.894531 12.304688 -12.351562 12.265625 -11.53125 C 12.222656 -11.039062 12.210938 -10.425781 12.234375 -9.6875 C 12.253906 -8.957031 12.265625 -8.289062 12.265625 -7.6875 L 11.984375 -7.6875 C 11.378906 -7.726562 10.988281 -7.820312 10.8125 -7.96875 C 10.644531 -8.113281 10.546875 -8.507812 10.515625 -9.15625 C 10.472656 -10.132812 10.460938 -10.976562 10.484375 -11.6875 C 10.503906 -12.40625 10.53125 -13.066406 10.5625 -13.671875 C 10.601562 -14.835938 11.207031 -15.421875 12.375 -15.421875 L 16.21875 -15.421875 C 17.195312 -15.421875 17.800781 -15.5625 18.03125 -15.84375 C 18.257812 -16.132812 18.390625 -16.75 18.421875 -17.6875 Z M 23.171875 -2.65625 C 23.171875 -1.226562 23.082031 -0.128906 22.90625 0.640625 C 22.738281 1.421875 22.375 1.960938 21.8125 2.265625 C 21.25 2.566406 20.382812 2.734375 19.21875 2.765625 L 8.359375 2.828125 C 7.984375 2.828125 7.578125 2.804688 7.140625 2.765625 C 6.710938 2.734375 6.367188 2.601562 6.109375 2.375 C 5.835938 2.113281 5.6875 1.660156 5.65625 1.015625 L 17.796875 1.015625 C 18.890625 1.015625 19.75 0.945312 20.375 0.8125 C 21 0.6875 21.363281 0.0390625 21.46875 -1.125 C 21.550781 -1.539062 21.597656 -1.972656 21.609375 -2.421875 C 21.628906 -2.878906 21.625 -3.332031 21.59375 -3.78125 C 22.039062 -3.78125 22.414062 -3.710938 22.71875 -3.578125 C 23.019531 -3.453125 23.171875 -3.144531 23.171875 -2.65625 Z M 23.171875 -2.65625 "/></g></g></g><g fill="#f0ecec" fill-opacity="1"><g transform="translate(314.940512, 134.23969)"><g><path d="M 25.375 -21.875 L 25.375 -36.734375 C 25.375 -37.378906 25.34375 -37.992188 25.28125 -38.578125 C 25.226562 -39.160156 24.898438 -39.46875 24.296875 -39.5 C 23.890625 -39.582031 23.457031 -39.625 23 -39.625 C 22.550781 -39.625 22.082031 -39.625 21.59375 -39.625 C 20.6875 -39.625 20.023438 -39.570312 19.609375 -39.46875 C 19.191406 -39.375 18.9375 -39.128906 18.84375 -38.734375 C 18.75 -38.335938 18.703125 -37.671875 18.703125 -36.734375 C 18.703125 -36.847656 18.703125 -35.882812 18.703125 -33.84375 C 18.703125 -31.8125 18.6875 -28.6875 18.65625 -24.46875 C 18.65625 -23.53125 18.644531 -22.867188 18.625 -22.484375 C 18.601562 -22.109375 18.519531 -21.695312 18.375 -21.25 C 18.257812 -20.90625 18.054688 -20.734375 17.765625 -20.734375 C 17.484375 -20.734375 17.269531 -20.90625 17.125 -21.25 C 17.007812 -21.476562 16.894531 -21.757812 16.78125 -22.09375 L 12.609375 -36.21875 C 12.453125 -36.75 12.316406 -37.191406 12.203125 -37.546875 C 12.085938 -37.910156 11.992188 -38.1875 11.921875 -38.375 C 11.691406 -39.164062 11.222656 -39.5625 10.515625 -39.5625 L 5.140625 -39.5625 C 4.503906 -39.519531 4.144531 -39.195312 4.0625 -38.59375 C 3.988281 -38 3.953125 -37.265625 3.953125 -36.390625 L 3.953125 -21.875 L 1.703125 -20.578125 C 1.398438 -20.347656 1.25 -20.0625 1.25 -19.71875 C 1.25 -19.414062 1.398438 -19.15625 1.703125 -18.9375 L 3.953125 -17.640625 L 3.953125 -3.328125 C 3.953125 -2.429688 3.988281 -1.660156 4.0625 -1.015625 C 4.144531 -0.378906 4.617188 -0.00390625 5.484375 0.109375 L 7.453125 0.109375 C 8.515625 0.109375 9.269531 0.0625 9.71875 -0.03125 C 10.175781 -0.125 10.453125 -0.375 10.546875 -0.78125 C 10.640625 -1.195312 10.6875 -1.914062 10.6875 -2.9375 L 10.6875 -15.203125 C 10.6875 -16.410156 10.757812 -17.222656 10.90625 -17.640625 C 11.0625 -17.972656 11.285156 -18.164062 11.578125 -18.21875 C 11.878906 -18.28125 12.109375 -18.140625 12.265625 -17.796875 L 12.9375 -15.9375 C 12.90625 -16.082031 13.21875 -15.0625 13.875 -12.875 C 14.53125 -10.695312 15.613281 -7.382812 17.125 -2.9375 C 17.269531 -2.519531 17.390625 -2.179688 17.484375 -1.921875 C 17.585938 -1.660156 17.65625 -1.4375 17.6875 -1.25 C 17.914062 -0.644531 18.300781 -0.253906 18.84375 -0.078125 C 19.394531 0.0859375 19.976562 0.160156 20.59375 0.140625 C 21.21875 0.117188 21.753906 0.109375 22.203125 0.109375 C 23.222656 0.109375 23.945312 0.0625 24.375 -0.03125 C 24.8125 -0.125 25.085938 -0.394531 25.203125 -0.84375 C 25.316406 -1.300781 25.375 -2.019531 25.375 -3 L 25.375 -17.640625 L 27.578125 -18.9375 C 27.921875 -19.15625 28.09375 -19.414062 28.09375 -19.71875 C 28.09375 -20.0625 27.921875 -20.347656 27.578125 -20.578125 Z M 13.5 -36.734375 C 13.957031 -36.773438 14.375 -36.726562 14.75 -36.59375 C 15.125 -36.457031 15.390625 -36.128906 15.546875 -35.609375 C 15.617188 -35.421875 15.710938 -35.144531 15.828125 -34.78125 C 15.941406 -34.425781 16.070312 -33.984375 16.21875 -33.453125 L 17.640625 -28.546875 L 17.640625 -24.421875 C 17.640625 -24.265625 17.582031 -24.175781 17.46875 -24.15625 C 17.351562 -24.132812 17.257812 -24.203125 17.1875 -24.359375 Z M 26.390625 -36.734375 C 26.503906 -36.734375 26.625 -36.734375 26.75 -36.734375 C 26.882812 -36.734375 27.007812 -36.710938 27.125 -36.671875 C 27.726562 -36.640625 28.054688 -36.332031 28.109375 -35.75 C 28.171875 -35.164062 28.203125 -34.550781 28.203125 -33.90625 L 28.203125 -21.359375 C 28.203125 -21.359375 27.597656 -21.71875 26.390625 -22.4375 Z M 30.40625 -17.75 C 30.75 -17.59375 30.921875 -17.304688 30.921875 -16.890625 C 30.921875 -16.597656 30.75 -16.335938 30.40625 -16.109375 L 28.203125 -14.8125 L 28.203125 -0.171875 C 28.203125 1.078125 27.992188 1.90625 27.578125 2.3125 C 27.160156 2.726562 26.3125 2.9375 25.03125 2.9375 C 24.582031 2.9375 24.035156 2.945312 23.390625 2.96875 C 22.753906 2.988281 22.160156 2.90625 21.609375 2.71875 C 21.066406 2.53125 20.703125 2.148438 20.515625 1.578125 C 20.472656 1.503906 20.453125 1.429688 20.453125 1.359375 C 20.453125 1.285156 20.4375 1.226562 20.40625 1.1875 C 20.78125 1.1875 21.117188 1.175781 21.421875 1.15625 C 21.722656 1.132812 21.984375 1.125 22.203125 1.125 C 23.597656 1.125 24.585938 1.066406 25.171875 0.953125 C 25.753906 0.847656 26.101562 0.503906 26.21875 -0.078125 C 26.332031 -0.660156 26.390625 -1.632812 26.390625 -3 L 26.390625 -17.0625 L 28.140625 -18.078125 C 28.296875 -18.160156 28.421875 -18.253906 28.515625 -18.359375 C 28.609375 -18.472656 28.691406 -18.585938 28.765625 -18.703125 Z M 11.703125 -14.984375 C 11.703125 -15.171875 11.765625 -15.28125 11.890625 -15.3125 C 12.023438 -15.351562 12.113281 -15.28125 12.15625 -15.09375 C 12.300781 -14.71875 12.457031 -14.242188 12.625 -13.671875 C 12.800781 -13.109375 13.09375 -12.164062 13.5 -10.84375 L 13.5 -0.109375 C 13.5 1.097656 13.289062 1.90625 12.875 2.3125 C 12.46875 2.726562 11.601562 2.9375 10.28125 2.9375 L 8.3125 2.9375 C 7.707031 2.863281 7.3125 2.664062 7.125 2.34375 C 6.9375 2.019531 6.820312 1.613281 6.78125 1.125 L 7.453125 1.125 C 8.890625 1.125 9.898438 1.066406 10.484375 0.953125 C 11.066406 0.847656 11.414062 0.515625 11.53125 -0.046875 C 11.644531 -0.617188 11.703125 -1.582031 11.703125 -2.9375 Z M 11.703125 -14.984375 "/></g></g></g><g fill="#f0ecec" fill-opacity="1"><g transform="translate(224.181715, 134.23969)"><g><path d="M 22.09375 -3.390625 C 22.394531 -1.734375 22.320312 -0.71875 21.875 -0.34375 C 21.71875 -0.1875 21.265625 -0.078125 20.515625 -0.015625 C 19.765625 0.0351562 19.007812 0.0507812 18.25 0.03125 C 17.5 0.0078125 17.046875 0 16.890625 0 C 16.367188 -0.0390625 15.992188 -0.171875 15.765625 -0.390625 C 15.503906 -0.617188 15.332031 -0.96875 15.25 -1.4375 C 15.175781 -1.90625 15.085938 -2.59375 14.984375 -3.5 C 14.941406 -3.914062 14.898438 -4.289062 14.859375 -4.625 C 14.828125 -4.96875 14.769531 -5.253906 14.6875 -5.484375 C 14.6875 -5.671875 14.640625 -6.023438 14.546875 -6.546875 C 14.453125 -7.078125 14.265625 -7.585938 13.984375 -8.078125 C 13.703125 -8.566406 13.222656 -8.8125 12.546875 -8.8125 C 12.398438 -8.851562 12.285156 -8.875 12.203125 -8.875 C 12.128906 -8.875 12.09375 -8.875 12.09375 -8.875 C 11.113281 -8.875 10.378906 -8.828125 9.890625 -8.734375 C 9.398438 -8.640625 9.050781 -8.382812 8.84375 -7.96875 C 8.632812 -7.550781 8.472656 -6.851562 8.359375 -5.875 C 8.328125 -5.644531 8.242188 -5.15625 8.109375 -4.40625 C 7.972656 -3.65625 7.796875 -2.617188 7.578125 -1.296875 C 7.421875 -0.472656 6.945312 -0.0625 6.15625 -0.0625 C 4.425781 -0.0195312 2.957031 -0.0195312 1.75 -0.0625 C 0.957031 -0.09375 0.570312 -0.375 0.59375 -0.90625 C 0.613281 -1.4375 0.679688 -2.113281 0.796875 -2.9375 C 1.472656 -6.78125 2.015625 -9.90625 2.421875 -12.3125 C 2.835938 -14.726562 3.125 -16.425781 3.28125 -17.40625 C 3.28125 -17.476562 3.285156 -17.550781 3.296875 -17.625 C 3.316406 -17.707031 3.328125 -17.765625 3.328125 -17.796875 L 1.359375 -18.984375 C 1.015625 -19.171875 0.84375 -19.4375 0.84375 -19.78125 C 0.84375 -20.15625 1.015625 -20.421875 1.359375 -20.578125 L 4.0625 -22.15625 C 4.707031 -25.65625 5.234375 -28.675781 5.640625 -31.21875 C 6.054688 -33.769531 6.398438 -35.816406 6.671875 -37.359375 C 6.859375 -38.296875 7.109375 -38.894531 7.421875 -39.15625 C 7.742188 -39.425781 8.359375 -39.5625 9.265625 -39.5625 L 14.40625 -39.5625 C 15.007812 -39.488281 15.425781 -39.375 15.65625 -39.21875 C 15.84375 -39.03125 16 -38.707031 16.125 -38.25 C 16.257812 -37.800781 16.367188 -37.351562 16.453125 -36.90625 C 17.242188 -32.226562 17.84375 -28.644531 18.25 -26.15625 C 18.664062 -23.675781 18.894531 -22.320312 18.9375 -22.09375 L 21.59375 -20.578125 C 21.894531 -20.390625 22.046875 -20.125 22.046875 -19.78125 C 22.046875 -19.4375 21.894531 -19.171875 21.59375 -18.984375 L 19.671875 -17.859375 C 20.421875 -13.265625 21.003906 -9.757812 21.421875 -7.34375 C 21.835938 -4.9375 22.0625 -3.617188 22.09375 -3.390625 Z M 18.9375 -36.34375 C 19.125 -36.15625 19.28125 -35.832031 19.40625 -35.375 C 19.539062 -34.925781 19.644531 -34.472656 19.71875 -34.015625 C 20.207031 -31.117188 20.628906 -28.632812 20.984375 -26.5625 C 21.347656 -24.488281 21.625 -22.847656 21.8125 -21.640625 C 21.507812 -21.828125 21.1875 -22.023438 20.84375 -22.234375 C 20.507812 -22.441406 20.191406 -22.625 19.890625 -22.78125 C 19.816406 -23.300781 19.664062 -24.179688 19.4375 -25.421875 C 19.21875 -26.671875 18.9375 -28.351562 18.59375 -30.46875 C 18.445312 -31.363281 18.273438 -32.328125 18.078125 -33.359375 C 17.890625 -34.398438 17.703125 -35.503906 17.515625 -36.671875 C 17.972656 -36.671875 18.285156 -36.644531 18.453125 -36.59375 C 18.617188 -36.539062 18.78125 -36.457031 18.9375 -36.34375 Z M 13.21875 -15.828125 C 13.21875 -15.898438 13.21875 -16.007812 13.21875 -16.15625 C 13.21875 -16.3125 13.203125 -16.519531 13.171875 -16.78125 C 13.128906 -17.125 13.050781 -17.613281 12.9375 -18.25 C 12.820312 -18.894531 12.707031 -19.5 12.59375 -20.0625 C 12.488281 -20.625 12.4375 -20.925781 12.4375 -20.96875 C 12.394531 -21.195312 12.28125 -21.476562 12.09375 -21.8125 C 11.945312 -22.113281 11.738281 -22.234375 11.46875 -22.171875 C 11.207031 -22.117188 11.019531 -22 10.90625 -21.8125 C 10.71875 -21.289062 10.535156 -20.59375 10.359375 -19.71875 C 10.191406 -18.851562 10.070312 -17.816406 10 -16.609375 C 9.96875 -16.460938 9.953125 -16.320312 9.953125 -16.1875 C 9.953125 -16.0625 9.953125 -15.957031 9.953125 -15.875 C 9.953125 -15.613281 10.210938 -15.4375 10.734375 -15.34375 C 11.265625 -15.25 11.800781 -15.25 12.34375 -15.34375 C 12.894531 -15.4375 13.1875 -15.597656 13.21875 -15.828125 Z M 12.09375 -16.390625 C 12.019531 -16.347656 11.832031 -16.328125 11.53125 -16.328125 L 11.015625 -16.328125 L 11.015625 -16.5625 C 11.097656 -17.3125 11.175781 -17.976562 11.25 -18.5625 C 11.320312 -19.144531 11.394531 -19.644531 11.46875 -20.0625 C 11.507812 -19.988281 11.53125 -19.910156 11.53125 -19.828125 C 11.53125 -19.753906 11.546875 -19.660156 11.578125 -19.546875 C 11.660156 -19.097656 11.753906 -18.582031 11.859375 -18 C 11.972656 -17.414062 12.050781 -16.972656 12.09375 -16.671875 Z M 25.4375 -0.5625 C 25.582031 0.257812 25.65625 0.878906 25.65625 1.296875 C 25.65625 1.710938 25.539062 2.015625 25.3125 2.203125 C 25.09375 2.390625 24.835938 2.53125 24.546875 2.625 C 24.265625 2.71875 23.773438 2.773438 23.078125 2.796875 C 22.390625 2.816406 21.269531 2.828125 19.71875 2.828125 C 19.226562 2.828125 18.851562 2.695312 18.59375 2.4375 C 18.332031 2.207031 18.144531 1.734375 18.03125 1.015625 C 18.101562 1.015625 18.195312 1.023438 18.3125 1.046875 C 18.425781 1.066406 18.539062 1.078125 18.65625 1.078125 C 19.96875 1.078125 20.960938 1.035156 21.640625 0.953125 C 22.316406 0.878906 22.828125 0.65625 23.171875 0.28125 C 23.359375 0.0507812 23.441406 -0.378906 23.421875 -1.015625 C 23.398438 -1.660156 23.296875 -2.507812 23.109375 -3.5625 C 23.078125 -3.675781 23.03125 -3.929688 22.96875 -4.328125 C 22.914062 -4.722656 22.8125 -5.390625 22.65625 -6.328125 C 22.46875 -7.421875 22.210938 -8.890625 21.890625 -10.734375 C 21.578125 -12.578125 21.210938 -14.765625 20.796875 -17.296875 L 22.09375 -18.078125 C 22.4375 -18.304688 22.703125 -18.59375 22.890625 -18.9375 L 24.984375 -17.75 C 25.285156 -17.5625 25.4375 -17.296875 25.4375 -16.953125 C 25.4375 -16.617188 25.285156 -16.351562 24.984375 -16.15625 L 23 -15.03125 C 23.75 -10.4375 24.332031 -6.929688 24.75 -4.515625 C 25.164062 -2.109375 25.394531 -0.789062 25.4375 -0.5625 Z M 12.484375 -7.75 C 12.597656 -7.75 12.769531 -7.679688 13 -7.546875 C 13.226562 -7.410156 13.414062 -6.910156 13.5625 -6.046875 C 12.8125 -6.046875 12.265625 -5.96875 11.921875 -5.8125 C 11.585938 -5.664062 11.351562 -5.382812 11.21875 -4.96875 C 11.082031 -4.5625 10.957031 -3.921875 10.84375 -3.046875 C 10.8125 -2.828125 10.765625 -2.507812 10.703125 -2.09375 C 10.648438 -1.675781 10.507812 -0.828125 10.28125 0.453125 C 10.207031 0.867188 10.007812 1.359375 9.6875 1.921875 C 9.375 2.484375 8.742188 2.765625 7.796875 2.765625 C 6.929688 2.765625 6.328125 2.773438 5.984375 2.796875 C 5.648438 2.816406 5.179688 2.804688 4.578125 2.765625 C 3.972656 2.734375 3.625 2.554688 3.53125 2.234375 C 3.4375 1.910156 3.410156 1.503906 3.453125 1.015625 L 3.734375 1.015625 C 4.109375 1.015625 4.5 1.015625 4.90625 1.015625 C 5.320312 1.015625 5.738281 0.992188 6.15625 0.953125 C 7.550781 0.953125 8.363281 0.273438 8.59375 -1.078125 L 9.046875 -3.5 C 9.117188 -4.144531 9.191406 -4.644531 9.265625 -5 C 9.335938 -5.351562 9.375 -5.609375 9.375 -5.765625 C 9.414062 -5.992188 9.472656 -6.332031 9.546875 -6.78125 C 9.628906 -7.226562 9.742188 -7.507812 9.890625 -7.625 C 10.003906 -7.707031 10.285156 -7.753906 10.734375 -7.765625 C 11.191406 -7.785156 11.644531 -7.796875 12.09375 -7.796875 L 12.328125 -7.796875 L 12.375 -7.75 Z M 12.484375 -7.75 "/></g></g></g><g fill="#f0ecec" fill-opacity="1"><g transform="translate(33.36459, 279.510663)"><g><path d="M 16.953125 -39.578125 C 17.859375 -39.578125 18.5 -39.535156 18.875 -39.453125 C 19.257812 -39.378906 19.5 -39.160156 19.59375 -38.796875 C 19.6875 -38.441406 19.734375 -37.816406 19.734375 -36.921875 C 19.734375 -36.347656 19.734375 -35.851562 19.734375 -35.4375 C 19.734375 -35.03125 19.710938 -34.710938 19.671875 -34.484375 C 19.671875 -34.035156 19.578125 -33.675781 19.390625 -33.40625 C 19.160156 -33.21875 18.859375 -33.101562 18.484375 -33.0625 C 18.109375 -33.03125 17.65625 -33.015625 17.125 -33.015625 C 16.5625 -33.015625 16.003906 -32.992188 15.453125 -32.953125 C 14.910156 -32.921875 14.46875 -32.734375 14.125 -32.390625 C 13.789062 -32.085938 13.601562 -31.65625 13.5625 -31.09375 C 13.53125 -30.53125 13.515625 -29.703125 13.515625 -28.609375 L 13.515625 -21.9375 L 16 -20.515625 C 16.300781 -20.296875 16.453125 -20.035156 16.453125 -19.734375 C 16.453125 -19.359375 16.300781 -19.070312 16 -18.875 L 13.515625 -17.46875 L 13.515625 -3.453125 C 13.515625 -2.429688 13.484375 -1.617188 13.421875 -1.015625 C 13.367188 -0.410156 13.003906 -0.0703125 12.328125 0 C 10.859375 0.0390625 9.441406 0.0390625 8.078125 0 C 7.367188 -0.0390625 6.984375 -0.359375 6.921875 -0.953125 C 6.867188 -1.554688 6.84375 -2.273438 6.84375 -3.109375 L 6.84375 -17.40625 L 4.234375 -18.875 C 3.972656 -19.03125 3.84375 -19.316406 3.84375 -19.734375 C 3.84375 -20.035156 3.972656 -20.296875 4.234375 -20.515625 L 6.84375 -21.984375 L 6.84375 -29.171875 C 6.84375 -30.148438 6.820312 -30.863281 6.78125 -31.3125 C 6.75 -31.769531 6.597656 -32.128906 6.328125 -32.390625 C 6.066406 -32.691406 5.671875 -32.867188 5.140625 -32.921875 C 4.617188 -32.984375 4.070312 -33.015625 3.5 -33.015625 C 3.195312 -33.015625 2.929688 -33.015625 2.703125 -33.015625 C 2.484375 -33.015625 2.316406 -33.035156 2.203125 -33.078125 C 1.640625 -33.109375 1.242188 -33.21875 1.015625 -33.40625 C 0.785156 -33.59375 0.65625 -33.972656 0.625 -34.546875 C 0.550781 -35.742188 0.550781 -37.003906 0.625 -38.328125 C 0.625 -38.742188 0.738281 -39.066406 0.96875 -39.296875 C 1.1875 -39.484375 1.484375 -39.578125 1.859375 -39.578125 C 2.242188 -39.578125 2.753906 -39.578125 3.390625 -39.578125 Z M 20.75 -36.75 C 21.613281 -36.707031 22.128906 -36.546875 22.296875 -36.265625 C 22.472656 -35.984375 22.5625 -35.257812 22.5625 -34.09375 C 22.5625 -33.257812 22.53125 -32.660156 22.46875 -32.296875 C 22.414062 -31.941406 22.21875 -31.597656 21.875 -31.265625 C 21.539062 -30.921875 21.15625 -30.691406 20.71875 -30.578125 C 20.28125 -30.460938 19.78125 -30.40625 19.21875 -30.40625 C 18.351562 -30.40625 17.75 -30.382812 17.40625 -30.34375 C 17.070312 -30.3125 16.8125 -30.203125 16.625 -30.015625 C 16.46875 -29.867188 16.378906 -29.539062 16.359375 -29.03125 C 16.347656 -28.519531 16.34375 -27.4375 16.34375 -25.78125 L 16.34375 -21.484375 L 14.53125 -22.5625 L 14.53125 -28.609375 C 14.53125 -29.703125 14.546875 -30.453125 14.578125 -30.859375 C 14.617188 -31.273438 14.71875 -31.539062 14.875 -31.65625 C 14.976562 -31.8125 15.171875 -31.90625 15.453125 -31.9375 C 15.742188 -31.976562 16.300781 -32 17.125 -32 C 17.65625 -32 18.210938 -32.003906 18.796875 -32.015625 C 19.378906 -32.035156 19.859375 -32.238281 20.234375 -32.625 C 20.421875 -32.8125 20.539062 -33.0625 20.59375 -33.375 C 20.65625 -33.695312 20.6875 -34.046875 20.6875 -34.421875 C 20.6875 -34.691406 20.695312 -35.023438 20.71875 -35.421875 C 20.738281 -35.816406 20.75 -36.257812 20.75 -36.75 Z M 3.5 -32 C 4.21875 -32 4.71875 -31.976562 5 -31.9375 C 5.28125 -31.90625 5.476562 -31.832031 5.59375 -31.71875 C 5.664062 -31.632812 5.722656 -31.5 5.765625 -31.3125 C 5.804688 -31.125 5.828125 -30.75 5.828125 -30.1875 C 5.410156 -30.1875 5.144531 -30.207031 5.03125 -30.25 C 4.46875 -30.28125 4.070312 -30.390625 3.84375 -30.578125 C 3.613281 -30.765625 3.484375 -31.144531 3.453125 -31.71875 L 3.453125 -32 Z M 16.5 -17.984375 C 16.800781 -18.171875 17.03125 -18.394531 17.1875 -18.65625 L 18.828125 -17.6875 C 19.128906 -17.46875 19.28125 -17.207031 19.28125 -16.90625 C 19.28125 -16.53125 19.128906 -16.25 18.828125 -16.0625 L 16.34375 -14.640625 L 16.34375 -0.625 C 16.34375 0.394531 16.195312 1.207031 15.90625 1.8125 C 15.625 2.414062 14.957031 2.753906 13.90625 2.828125 C 13.1875 2.867188 12.675781 2.890625 12.375 2.890625 C 12.070312 2.890625 11.582031 2.867188 10.90625 2.828125 C 10.382812 2.785156 10.046875 2.601562 9.890625 2.28125 C 9.742188 1.96875 9.671875 1.566406 9.671875 1.078125 C 10.117188 1.078125 10.566406 1.078125 11.015625 1.078125 C 11.472656 1.078125 11.925781 1.054688 12.375 1.015625 C 13.207031 0.941406 13.765625 0.664062 14.046875 0.1875 C 14.328125 -0.28125 14.476562 -0.84375 14.5 -1.5 C 14.519531 -2.15625 14.53125 -2.804688 14.53125 -3.453125 L 14.53125 -16.84375 Z M 16.5 -17.984375 "/></g></g></g><g fill="#f0ecec" fill-opacity="1"><g transform="translate(101.707453, 279.510663)"><g><path d="M 22.5 -36.859375 C 22.5 -37.609375 22.46875 -38.265625 22.40625 -38.828125 C 22.351562 -39.398438 21.953125 -39.703125 21.203125 -39.734375 C 20.859375 -39.773438 20.316406 -39.804688 19.578125 -39.828125 C 18.847656 -39.847656 18.148438 -39.828125 17.484375 -39.765625 C 16.828125 -39.710938 16.40625 -39.59375 16.21875 -39.40625 C 15.957031 -39.132812 15.828125 -38.304688 15.828125 -36.921875 C 15.785156 -36.347656 15.765625 -35.632812 15.765625 -34.78125 C 15.765625 -33.9375 15.765625 -32.972656 15.765625 -31.890625 L 15.765625 -26.859375 C 15.765625 -26.023438 15.71875 -25.238281 15.625 -24.5 C 15.53125 -23.769531 15.050781 -23.367188 14.1875 -23.296875 C 13.46875 -23.179688 12.6875 -23.140625 11.84375 -23.171875 C 11 -23.210938 10.40625 -23.382812 10.0625 -23.6875 C 9.757812 -23.988281 9.597656 -24.429688 9.578125 -25.015625 C 9.554688 -25.597656 9.546875 -26.34375 9.546875 -27.25 L 9.546875 -36.625 C 9.546875 -37.5 9.519531 -38.226562 9.46875 -38.8125 C 9.414062 -39.394531 9.007812 -39.703125 8.25 -39.734375 C 7.914062 -39.773438 7.378906 -39.804688 6.640625 -39.828125 C 5.910156 -39.847656 5.203125 -39.828125 4.515625 -39.765625 C 3.835938 -39.710938 3.40625 -39.59375 3.21875 -39.40625 C 2.957031 -39.132812 2.828125 -38.304688 2.828125 -36.921875 L 2.828125 -3.625 C 2.828125 -2.601562 2.84375 -1.863281 2.875 -1.40625 C 2.914062 -0.957031 3.03125 -0.617188 3.21875 -0.390625 C 3.445312 -0.171875 3.820312 -0.0507812 4.34375 -0.03125 C 4.875 -0.0078125 5.613281 0 6.5625 0 C 7.5 0 8.175781 -0.0546875 8.59375 -0.171875 C 9.007812 -0.285156 9.269531 -0.546875 9.375 -0.953125 C 9.488281 -1.367188 9.546875 -2.015625 9.546875 -2.890625 L 9.546875 -13.171875 C 9.546875 -13.960938 9.582031 -14.675781 9.65625 -15.3125 C 9.738281 -15.957031 10.195312 -16.300781 11.03125 -16.34375 C 11.59375 -16.375 12.191406 -16.398438 12.828125 -16.421875 C 13.472656 -16.441406 14.046875 -16.359375 14.546875 -16.171875 C 15.054688 -15.984375 15.390625 -15.625 15.546875 -15.09375 C 15.691406 -14.601562 15.765625 -13.832031 15.765625 -12.78125 L 15.828125 -2.9375 C 15.828125 -2.1875 15.851562 -1.535156 15.90625 -0.984375 C 15.96875 -0.441406 16.359375 -0.132812 17.078125 -0.0625 C 17.335938 -0.0195312 17.644531 0 18 0 C 18.363281 0 18.789062 0 19.28125 0 C 20.289062 0 21.019531 -0.046875 21.46875 -0.140625 C 21.925781 -0.234375 22.210938 -0.503906 22.328125 -0.953125 C 22.441406 -1.410156 22.5 -2.128906 22.5 -3.109375 Z M 10.578125 -36.921875 L 11.078125 -36.921875 C 11.828125 -36.921875 12.226562 -36.617188 12.28125 -36.015625 C 12.34375 -35.410156 12.375 -34.675781 12.375 -33.8125 L 12.375 -24.203125 C 12 -24.203125 11.695312 -24.21875 11.46875 -24.25 C 11.25 -24.289062 11.046875 -24.382812 10.859375 -24.53125 C 10.703125 -24.6875 10.613281 -24.953125 10.59375 -25.328125 C 10.582031 -25.703125 10.578125 -26.34375 10.578125 -27.25 Z M 24.03125 -36.921875 C 24.78125 -36.921875 25.179688 -36.625 25.234375 -36.03125 C 25.296875 -35.445312 25.328125 -34.78125 25.328125 -34.03125 L 25.328125 -0.734375 C 25.328125 0.503906 25.140625 1.40625 24.765625 1.96875 C 24.390625 2.539062 23.503906 2.828125 22.109375 2.828125 C 21.617188 2.828125 21.191406 2.828125 20.828125 2.828125 C 20.472656 2.828125 20.164062 2.804688 19.90625 2.765625 C 19.414062 2.734375 19.082031 2.554688 18.90625 2.234375 C 18.738281 1.910156 18.65625 1.503906 18.65625 1.015625 L 19.28125 1.015625 C 20.707031 1.015625 21.710938 0.957031 22.296875 0.84375 C 22.878906 0.726562 23.226562 0.378906 23.34375 -0.203125 C 23.457031 -0.785156 23.515625 -1.753906 23.515625 -3.109375 L 23.515625 -36.921875 Z M 11.421875 -15.3125 C 12.660156 -15.394531 13.46875 -15.394531 13.84375 -15.3125 C 14.226562 -15.238281 14.472656 -15.070312 14.578125 -14.8125 C 14.691406 -14.550781 14.75 -14.132812 14.75 -13.5625 C 14.601562 -13.5625 14.453125 -13.550781 14.296875 -13.53125 C 14.148438 -13.519531 14 -13.515625 13.84375 -13.515625 C 13.019531 -13.472656 12.566406 -13.128906 12.484375 -12.484375 C 12.410156 -11.847656 12.375 -11.132812 12.375 -10.34375 L 12.375 -0.0625 C 12.375 1.113281 12.203125 1.890625 11.859375 2.265625 C 11.523438 2.640625 10.703125 2.828125 9.390625 2.828125 C 8.441406 2.828125 7.703125 2.816406 7.171875 2.796875 C 6.648438 2.773438 6.273438 2.65625 6.046875 2.4375 C 5.816406 2.164062 5.6875 1.691406 5.65625 1.015625 L 6.5625 1.015625 C 7.914062 1.015625 8.863281 0.957031 9.40625 0.84375 C 9.957031 0.726562 10.289062 0.398438 10.40625 -0.140625 C 10.519531 -0.691406 10.578125 -1.609375 10.578125 -2.890625 L 10.578125 -13.171875 C 10.578125 -14.003906 10.648438 -14.5625 10.796875 -14.84375 C 10.953125 -15.125 11.160156 -15.28125 11.421875 -15.3125 Z M 11.421875 -15.3125 "/></g></g></g><g fill="#f0ecec" fill-opacity="1"><g transform="translate(175.081112, 279.510663)"><g><path d="M 20.515625 -5.484375 C 20.441406 -6.117188 20.140625 -6.460938 19.609375 -6.515625 C 19.085938 -6.578125 18.394531 -6.628906 17.53125 -6.671875 L 11.984375 -6.671875 C 11.046875 -6.710938 10.414062 -6.898438 10.09375 -7.234375 C 9.769531 -7.578125 9.570312 -8.195312 9.5 -9.09375 C 9.457031 -9.96875 9.445312 -10.789062 9.46875 -11.5625 C 9.488281 -12.332031 9.515625 -13.054688 9.546875 -13.734375 C 9.628906 -14.941406 9.859375 -15.695312 10.234375 -16 C 10.609375 -16.300781 11.320312 -16.453125 12.375 -16.453125 C 13.207031 -16.453125 13.941406 -16.453125 14.578125 -16.453125 C 15.222656 -16.453125 15.753906 -16.46875 16.171875 -16.5 C 16.992188 -16.582031 17.40625 -17 17.40625 -17.75 C 17.488281 -18.351562 17.53125 -18.945312 17.53125 -19.53125 C 17.53125 -20.113281 17.507812 -20.707031 17.46875 -21.3125 C 17.425781 -21.988281 17.289062 -22.445312 17.0625 -22.6875 C 16.84375 -22.9375 16.394531 -23.0625 15.71875 -23.0625 C 15.53125 -23.101562 15.265625 -23.125 14.921875 -23.125 C 14.585938 -23.125 14.191406 -23.125 13.734375 -23.125 C 12.867188 -23.125 12.125 -23.140625 11.5 -23.171875 C 10.882812 -23.210938 10.40625 -23.382812 10.0625 -23.6875 C 9.71875 -24.101562 9.546875 -24.648438 9.546875 -25.328125 C 9.515625 -26.234375 9.488281 -27.15625 9.46875 -28.09375 C 9.445312 -29.039062 9.457031 -29.984375 9.5 -30.921875 C 9.570312 -31.785156 9.769531 -32.382812 10.09375 -32.71875 C 10.414062 -33.0625 11.046875 -33.253906 11.984375 -33.296875 L 17.578125 -33.296875 C 18.410156 -33.296875 19.097656 -33.332031 19.640625 -33.40625 C 20.191406 -33.476562 20.484375 -33.859375 20.515625 -34.546875 C 20.554688 -34.992188 20.585938 -35.546875 20.609375 -36.203125 C 20.628906 -36.867188 20.609375 -37.492188 20.546875 -38.078125 C 20.492188 -38.660156 20.375 -39.023438 20.1875 -39.171875 C 19.84375 -39.441406 19.066406 -39.578125 17.859375 -39.578125 L 5.65625 -39.578125 C 4.75 -39.578125 4.097656 -39.53125 3.703125 -39.4375 C 3.304688 -39.34375 3.0625 -39.085938 2.96875 -38.671875 C 2.875 -38.253906 2.828125 -37.570312 2.828125 -36.625 L 2.828125 -3.734375 C 2.828125 -2.671875 2.835938 -1.914062 2.859375 -1.46875 C 2.878906 -1.019531 3.019531 -0.679688 3.28125 -0.453125 C 3.539062 -0.222656 3.882812 -0.0859375 4.3125 -0.046875 C 4.75 -0.015625 5.160156 0 5.546875 0 L 17.8125 0 C 18.414062 0 19 -0.0351562 19.5625 -0.109375 C 20.125 -0.179688 20.425781 -0.5625 20.46875 -1.25 C 20.539062 -1.925781 20.585938 -2.617188 20.609375 -3.328125 C 20.628906 -4.046875 20.597656 -4.765625 20.515625 -5.484375 Z M 21.65625 -36.6875 C 21.988281 -36.644531 22.222656 -36.597656 22.359375 -36.546875 C 22.492188 -36.492188 22.613281 -36.425781 22.71875 -36.34375 C 22.988281 -36.082031 23.125 -35.546875 23.125 -34.734375 C 23.125 -33.921875 23.085938 -33.195312 23.015625 -32.5625 C 22.972656 -31.769531 22.660156 -31.222656 22.078125 -30.921875 C 21.492188 -30.617188 20.710938 -30.46875 19.734375 -30.46875 L 14.25 -30.46875 C 13.300781 -30.46875 12.757812 -30.375 12.625 -30.1875 C 12.5 -30 12.398438 -29.472656 12.328125 -28.609375 C 12.242188 -27.097656 12.242188 -25.609375 12.328125 -24.140625 C 11.609375 -24.179688 11.144531 -24.25 10.9375 -24.34375 C 10.726562 -24.4375 10.609375 -24.78125 10.578125 -25.375 C 10.535156 -27.257812 10.535156 -29.085938 10.578125 -30.859375 C 10.609375 -31.503906 10.695312 -31.890625 10.84375 -32.015625 C 11 -32.148438 11.378906 -32.238281 11.984375 -32.28125 L 17.578125 -32.28125 C 18.828125 -32.28125 19.804688 -32.34375 20.515625 -32.46875 C 21.234375 -32.601562 21.613281 -33.273438 21.65625 -34.484375 Z M 18.421875 -17.6875 C 18.460938 -18.101562 18.492188 -18.519531 18.515625 -18.9375 C 18.535156 -19.351562 18.546875 -19.785156 18.546875 -20.234375 C 19.222656 -20.234375 19.632812 -20.109375 19.78125 -19.859375 C 19.9375 -19.617188 20.03125 -19.160156 20.0625 -18.484375 C 20.101562 -17.878906 20.125 -17.300781 20.125 -16.75 C 20.125 -16.207031 20.085938 -15.617188 20.015625 -14.984375 C 19.972656 -14.609375 19.78125 -14.296875 19.4375 -14.046875 C 19.101562 -13.804688 18.726562 -13.664062 18.3125 -13.625 C 17.894531 -13.582031 17.363281 -13.570312 16.71875 -13.59375 C 16.082031 -13.613281 15.351562 -13.625 14.53125 -13.625 C 13.8125 -13.625 13.300781 -13.613281 13 -13.59375 C 12.695312 -13.570312 12.507812 -13.429688 12.4375 -13.171875 C 12.363281 -12.910156 12.304688 -12.363281 12.265625 -11.53125 C 12.222656 -11.039062 12.210938 -10.425781 12.234375 -9.6875 C 12.253906 -8.957031 12.265625 -8.289062 12.265625 -7.6875 L 11.984375 -7.6875 C 11.378906 -7.726562 10.992188 -7.820312 10.828125 -7.96875 C 10.660156 -8.125 10.554688 -8.519531 10.515625 -9.15625 C 10.472656 -10.132812 10.460938 -10.984375 10.484375 -11.703125 C 10.503906 -12.421875 10.535156 -13.082031 10.578125 -13.6875 C 10.609375 -14.851562 11.207031 -15.4375 12.375 -15.4375 L 16.21875 -15.4375 C 17.195312 -15.4375 17.800781 -15.578125 18.03125 -15.859375 C 18.257812 -16.140625 18.390625 -16.75 18.421875 -17.6875 Z M 23.171875 -2.65625 C 23.171875 -1.226562 23.085938 -0.128906 22.921875 0.640625 C 22.753906 1.421875 22.382812 1.960938 21.8125 2.265625 C 21.25 2.566406 20.382812 2.734375 19.21875 2.765625 L 8.359375 2.828125 C 7.984375 2.828125 7.578125 2.804688 7.140625 2.765625 C 6.710938 2.734375 6.367188 2.601562 6.109375 2.375 C 5.835938 2.113281 5.6875 1.660156 5.65625 1.015625 L 17.8125 1.015625 C 18.90625 1.015625 19.757812 0.945312 20.375 0.8125 C 21 0.6875 21.367188 0.0390625 21.484375 -1.125 C 21.554688 -1.539062 21.601562 -1.972656 21.625 -2.421875 C 21.644531 -2.878906 21.632812 -3.332031 21.59375 -3.78125 C 22.039062 -3.78125 22.414062 -3.710938 22.71875 -3.578125 C 23.019531 -3.453125 23.171875 -3.144531 23.171875 -2.65625 Z M 23.171875 -2.65625 "/></g></g></g><g fill="#f0ecec" fill-opacity="1"><g transform="translate(244.611026, 279.510663)"><g><path d="M 22.71875 -3.109375 C 21.96875 -6.117188 21.335938 -8.582031 20.828125 -10.5 C 20.316406 -12.425781 19.929688 -13.84375 19.671875 -14.75 C 19.335938 -16.1875 19.546875 -17.375 20.296875 -18.3125 C 21.390625 -19.707031 21.9375 -21.046875 21.9375 -22.328125 C 21.96875 -27.523438 21.96875 -30.878906 21.9375 -32.390625 C 21.894531 -33.972656 21.363281 -35.367188 20.34375 -36.578125 C 19.332031 -37.785156 18.050781 -38.578125 16.5 -38.953125 C 14.695312 -39.472656 13.078125 -39.695312 11.640625 -39.625 L 8.65625 -39.625 C 7.03125 -39.625 5.785156 -39.625 4.921875 -39.625 C 4.054688 -39.625 3.488281 -39.492188 3.21875 -39.234375 C 2.957031 -38.972656 2.828125 -38.125 2.828125 -36.6875 L 2.828125 -3.28125 C 2.828125 -2.332031 2.851562 -1.554688 2.90625 -0.953125 C 2.96875 -0.359375 3.375 -0.0390625 4.125 0 C 5.476562 0.0703125 6.816406 0.0703125 8.140625 0 C 8.929688 -0.0390625 9.351562 -0.351562 9.40625 -0.9375 C 9.46875 -1.519531 9.5 -2.222656 9.5 -3.046875 L 9.5 -11.03125 C 9.53125 -11.894531 9.59375 -12.664062 9.6875 -13.34375 C 9.789062 -14.019531 10.253906 -14.414062 11.078125 -14.53125 C 11.910156 -14.644531 12.445312 -14.414062 12.6875 -13.84375 C 12.9375 -13.28125 13.117188 -12.734375 13.234375 -12.203125 L 14.296875 -7.625 C 14.597656 -6.539062 14.84375 -5.609375 15.03125 -4.828125 C 15.21875 -4.054688 15.351562 -3.460938 15.4375 -3.046875 C 15.625 -2.253906 15.8125 -1.566406 16 -0.984375 C 16.1875 -0.398438 16.582031 -0.0703125 17.1875 0 C 18.125 0.0390625 19.015625 0.0625 19.859375 0.0625 C 20.710938 0.0625 21.515625 0.0195312 22.265625 -0.0625 C 22.566406 -0.09375 22.800781 -0.222656 22.96875 -0.453125 C 23.144531 -0.679688 23.195312 -0.925781 23.125 -1.1875 C 23.082031 -1.445312 23.03125 -1.738281 22.96875 -2.0625 C 22.914062 -2.382812 22.832031 -2.734375 22.71875 -3.109375 Z M 25.609375 2.765625 C 24.859375 2.804688 23.972656 2.835938 22.953125 2.859375 C 21.929688 2.878906 20.953125 2.867188 20.015625 2.828125 C 19.554688 2.753906 19.222656 2.566406 19.015625 2.265625 C 18.816406 1.960938 18.660156 1.566406 18.546875 1.078125 C 19.296875 1.109375 19.976562 1.101562 20.59375 1.0625 C 21.21875 1.03125 21.816406 1 22.390625 0.96875 C 23.484375 0.882812 24.066406 0.625 24.140625 0.1875 C 24.210938 -0.238281 24.210938 -0.753906 24.140625 -1.359375 C 24.066406 -1.804688 23.882812 -2.613281 23.59375 -3.78125 C 23.3125 -4.957031 22.984375 -6.257812 22.609375 -7.6875 C 22.234375 -9.125 21.863281 -10.507812 21.5 -11.84375 C 21.144531 -13.175781 20.859375 -14.238281 20.640625 -15.03125 C 20.410156 -16.125 20.5625 -17.007812 21.09375 -17.6875 C 22.332031 -19.238281 22.953125 -20.785156 22.953125 -22.328125 C 22.992188 -24.960938 23.003906 -27.109375 22.984375 -28.765625 C 22.960938 -30.429688 22.953125 -31.660156 22.953125 -32.453125 L 22.953125 -33.40625 C 22.953125 -33.9375 23.101562 -33.957031 23.40625 -33.46875 C 23.78125 -32.9375 24.085938 -32.3125 24.328125 -31.59375 C 24.578125 -30.882812 24.722656 -30.207031 24.765625 -29.5625 C 24.796875 -29.070312 24.800781 -28.597656 24.78125 -28.140625 C 24.769531 -27.691406 24.765625 -27.046875 24.765625 -26.203125 C 24.765625 -25.359375 24.765625 -24.066406 24.765625 -22.328125 C 24.765625 -21.273438 24.59375 -20.296875 24.25 -19.390625 C 23.914062 -18.484375 23.484375 -17.691406 22.953125 -17.015625 C 22.578125 -16.523438 22.460938 -15.96875 22.609375 -15.34375 C 22.765625 -14.726562 23.066406 -13.585938 23.515625 -11.921875 C 23.773438 -11.023438 24.140625 -9.601562 24.609375 -7.65625 C 25.085938 -5.71875 25.738281 -3.257812 26.5625 -0.28125 C 26.789062 0.550781 26.882812 1.25 26.84375 1.8125 C 26.8125 2.375 26.398438 2.691406 25.609375 2.765625 Z M 15.65625 -24.53125 C 15.65625 -24.5 15.644531 -24.425781 15.625 -24.3125 C 15.613281 -24.195312 15.585938 -24.046875 15.546875 -23.859375 C 15.316406 -22.796875 14.769531 -21.992188 13.90625 -21.453125 C 13.039062 -20.910156 12.082031 -20.769531 11.03125 -21.03125 C 10.082031 -21.289062 9.609375 -21.894531 9.609375 -22.84375 C 9.609375 -22.914062 9.597656 -23.316406 9.578125 -24.046875 C 9.554688 -24.785156 9.546875 -25.773438 9.546875 -27.015625 C 9.546875 -28.597656 9.535156 -29.832031 9.515625 -30.71875 C 9.503906 -31.601562 9.664062 -32.21875 10 -32.5625 C 10.34375 -32.90625 11.039062 -33 12.09375 -32.84375 C 12.207031 -32.800781 12.328125 -32.769531 12.453125 -32.75 C 12.585938 -32.738281 12.753906 -32.710938 12.953125 -32.671875 C 13.890625 -32.441406 14.566406 -32.101562 14.984375 -31.65625 C 15.398438 -31.207031 15.625 -30.53125 15.65625 -29.625 Z M 12.375 -21.984375 C 11.882812 -21.910156 11.46875 -21.921875 11.125 -22.015625 C 10.789062 -22.109375 10.625 -22.382812 10.625 -22.84375 C 10.625 -22.914062 10.613281 -23.316406 10.59375 -24.046875 C 10.582031 -24.785156 10.578125 -25.773438 10.578125 -27.015625 C 10.578125 -28.566406 10.554688 -29.691406 10.515625 -30.390625 C 10.472656 -31.085938 10.53125 -31.53125 10.6875 -31.71875 C 10.800781 -31.90625 11.210938 -31.941406 11.921875 -31.828125 C 12.410156 -31.785156 12.726562 -31.753906 12.875 -31.734375 C 13.03125 -31.722656 13.1875 -31.675781 13.34375 -31.59375 C 12.738281 -31.070312 12.425781 -30.273438 12.40625 -29.203125 C 12.382812 -28.128906 12.375 -26.460938 12.375 -24.203125 Z M 11.1875 -13.515625 C 11.488281 -13.585938 11.695312 -13.53125 11.8125 -13.34375 C 11.925781 -13.15625 12.054688 -12.703125 12.203125 -11.984375 L 12.546875 -10.625 C 12.429688 -10.320312 12.375 -9.953125 12.375 -9.515625 C 12.375 -9.085938 12.359375 -8.648438 12.328125 -8.203125 L 12.328125 -0.21875 C 12.328125 0.601562 12.296875 1.304688 12.234375 1.890625 C 12.179688 2.472656 11.757812 2.785156 10.96875 2.828125 C 9.644531 2.898438 8.304688 2.898438 6.953125 2.828125 C 6.421875 2.785156 6.070312 2.601562 5.90625 2.28125 C 5.738281 1.96875 5.65625 1.566406 5.65625 1.078125 C 6.070312 1.078125 6.492188 1.078125 6.921875 1.078125 C 7.359375 1.078125 7.785156 1.054688 8.203125 1.015625 C 9.097656 0.984375 9.707031 0.738281 10.03125 0.28125 C 10.351562 -0.164062 10.515625 -0.703125 10.515625 -1.328125 C 10.515625 -1.953125 10.515625 -2.523438 10.515625 -3.046875 L 10.515625 -11.03125 C 10.554688 -12.113281 10.613281 -12.785156 10.6875 -13.046875 C 10.757812 -13.316406 10.925781 -13.472656 11.1875 -13.515625 Z M 11.1875 -13.515625 "/></g></g></g><g fill="#f0ecec" fill-opacity="1"><g transform="translate(317.306364, 279.510663)"><g><path d="M 20.515625 -5.484375 C 20.441406 -6.117188 20.140625 -6.460938 19.609375 -6.515625 C 19.085938 -6.578125 18.394531 -6.628906 17.53125 -6.671875 L 11.984375 -6.671875 C 11.046875 -6.710938 10.414062 -6.898438 10.09375 -7.234375 C 9.769531 -7.578125 9.570312 -8.195312 9.5 -9.09375 C 9.457031 -9.96875 9.445312 -10.789062 9.46875 -11.5625 C 9.488281 -12.332031 9.515625 -13.054688 9.546875 -13.734375 C 9.628906 -14.941406 9.859375 -15.695312 10.234375 -16 C 10.609375 -16.300781 11.320312 -16.453125 12.375 -16.453125 C 13.207031 -16.453125 13.941406 -16.453125 14.578125 -16.453125 C 15.222656 -16.453125 15.753906 -16.46875 16.171875 -16.5 C 16.992188 -16.582031 17.40625 -17 17.40625 -17.75 C 17.488281 -18.351562 17.53125 -18.945312 17.53125 -19.53125 C 17.53125 -20.113281 17.507812 -20.707031 17.46875 -21.3125 C 17.425781 -21.988281 17.289062 -22.445312 17.0625 -22.6875 C 16.84375 -22.9375 16.394531 -23.0625 15.71875 -23.0625 C 15.53125 -23.101562 15.265625 -23.125 14.921875 -23.125 C 14.585938 -23.125 14.191406 -23.125 13.734375 -23.125 C 12.867188 -23.125 12.125 -23.140625 11.5 -23.171875 C 10.882812 -23.210938 10.40625 -23.382812 10.0625 -23.6875 C 9.71875 -24.101562 9.546875 -24.648438 9.546875 -25.328125 C 9.515625 -26.234375 9.488281 -27.15625 9.46875 -28.09375 C 9.445312 -29.039062 9.457031 -29.984375 9.5 -30.921875 C 9.570312 -31.785156 9.769531 -32.382812 10.09375 -32.71875 C 10.414062 -33.0625 11.046875 -33.253906 11.984375 -33.296875 L 17.578125 -33.296875 C 18.410156 -33.296875 19.097656 -33.332031 19.640625 -33.40625 C 20.191406 -33.476562 20.484375 -33.859375 20.515625 -34.546875 C 20.554688 -34.992188 20.585938 -35.546875 20.609375 -36.203125 C 20.628906 -36.867188 20.609375 -37.492188 20.546875 -38.078125 C 20.492188 -38.660156 20.375 -39.023438 20.1875 -39.171875 C 19.84375 -39.441406 19.066406 -39.578125 17.859375 -39.578125 L 5.65625 -39.578125 C 4.75 -39.578125 4.097656 -39.53125 3.703125 -39.4375 C 3.304688 -39.34375 3.0625 -39.085938 2.96875 -38.671875 C 2.875 -38.253906 2.828125 -37.570312 2.828125 -36.625 L 2.828125 -3.734375 C 2.828125 -2.671875 2.835938 -1.914062 2.859375 -1.46875 C 2.878906 -1.019531 3.019531 -0.679688 3.28125 -0.453125 C 3.539062 -0.222656 3.882812 -0.0859375 4.3125 -0.046875 C 4.75 -0.015625 5.160156 0 5.546875 0 L 17.8125 0 C 18.414062 0 19 -0.0351562 19.5625 -0.109375 C 20.125 -0.179688 20.425781 -0.5625 20.46875 -1.25 C 20.539062 -1.925781 20.585938 -2.617188 20.609375 -3.328125 C 20.628906 -4.046875 20.597656 -4.765625 20.515625 -5.484375 Z M 21.65625 -36.6875 C 21.988281 -36.644531 22.222656 -36.597656 22.359375 -36.546875 C 22.492188 -36.492188 22.613281 -36.425781 22.71875 -36.34375 C 22.988281 -36.082031 23.125 -35.546875 23.125 -34.734375 C 23.125 -33.921875 23.085938 -33.195312 23.015625 -32.5625 C 22.972656 -31.769531 22.660156 -31.222656 22.078125 -30.921875 C 21.492188 -30.617188 20.710938 -30.46875 19.734375 -30.46875 L 14.25 -30.46875 C 13.300781 -30.46875 12.757812 -30.375 12.625 -30.1875 C 12.5 -30 12.398438 -29.472656 12.328125 -28.609375 C 12.242188 -27.097656 12.242188 -25.609375 12.328125 -24.140625 C 11.609375 -24.179688 11.144531 -24.25 10.9375 -24.34375 C 10.726562 -24.4375 10.609375 -24.78125 10.578125 -25.375 C 10.535156 -27.257812 10.535156 -29.085938 10.578125 -30.859375 C 10.609375 -31.503906 10.695312 -31.890625 10.84375 -32.015625 C 11 -32.148438 11.378906 -32.238281 11.984375 -32.28125 L 17.578125 -32.28125 C 18.828125 -32.28125 19.804688 -32.34375 20.515625 -32.46875 C 21.234375 -32.601562 21.613281 -33.273438 21.65625 -34.484375 Z M 18.421875 -17.6875 C 18.460938 -18.101562 18.492188 -18.519531 18.515625 -18.9375 C 18.535156 -19.351562 18.546875 -19.785156 18.546875 -20.234375 C 19.222656 -20.234375 19.632812 -20.109375 19.78125 -19.859375 C 19.9375 -19.617188 20.03125 -19.160156 20.0625 -18.484375 C 20.101562 -17.878906 20.125 -17.300781 20.125 -16.75 C 20.125 -16.207031 20.085938 -15.617188 20.015625 -14.984375 C 19.972656 -14.609375 19.78125 -14.296875 19.4375 -14.046875 C 19.101562 -13.804688 18.726562 -13.664062 18.3125 -13.625 C 17.894531 -13.582031 17.363281 -13.570312 16.71875 -13.59375 C 16.082031 -13.613281 15.351562 -13.625 14.53125 -13.625 C 13.8125 -13.625 13.300781 -13.613281 13 -13.59375 C 12.695312 -13.570312 12.507812 -13.429688 12.4375 -13.171875 C 12.363281 -12.910156 12.304688 -12.363281 12.265625 -11.53125 C 12.222656 -11.039062 12.210938 -10.425781 12.234375 -9.6875 C 12.253906 -8.957031 12.265625 -8.289062 12.265625 -7.6875 L 11.984375 -7.6875 C 11.378906 -7.726562 10.992188 -7.820312 10.828125 -7.96875 C 10.660156 -8.125 10.554688 -8.519531 10.515625 -9.15625 C 10.472656 -10.132812 10.460938 -10.984375 10.484375 -11.703125 C 10.503906 -12.421875 10.535156 -13.082031 10.578125 -13.6875 C 10.609375 -14.851562 11.207031 -15.4375 12.375 -15.4375 L 16.21875 -15.4375 C 17.195312 -15.4375 17.800781 -15.578125 18.03125 -15.859375 C 18.257812 -16.140625 18.390625 -16.75 18.421875 -17.6875 Z M 23.171875 -2.65625 C 23.171875 -1.226562 23.085938 -0.128906 22.921875 0.640625 C 22.753906 1.421875 22.382812 1.960938 21.8125 2.265625 C 21.25 2.566406 20.382812 2.734375 19.21875 2.765625 L 8.359375 2.828125 C 7.984375 2.828125 7.578125 2.804688 7.140625 2.765625 C 6.710938 2.734375 6.367188 2.601562 6.109375 2.375 C 5.835938 2.113281 5.6875 1.660156 5.65625 1.015625 L 17.8125 1.015625 C 18.90625 1.015625 19.757812 0.945312 20.375 0.8125 C 21 0.6875 21.367188 0.0390625 21.484375 -1.125 C 21.554688 -1.539062 21.601562 -1.972656 21.625 -2.421875 C 21.644531 -2.878906 21.632812 -3.332031 21.59375 -3.78125 C 22.039062 -3.78125 22.414062 -3.710938 22.71875 -3.578125 C 23.019531 -3.453125 23.171875 -3.144531 23.171875 -2.65625 Z M 23.171875 -2.65625 "/></g></g></g></svg>